solid OpenSCAD_Model
  facet normal 0.951057 0.309017 0
    outer loop
      vertex 3.55 2.5 5.5
      vertex 3.35902 3.08778 1
      vertex 3.35902 3.08778 5.5
    endloop
  endfacet
  facet normal 0.951057 0.309017 0
    outer loop
      vertex 3.35902 3.08778 1
      vertex 3.55 2.5 5.5
      vertex 3.55 2.5 1
    endloop
  endfacet
  facet normal 0 1 -0
    outer loop
      vertex 2.85902 3.45106 1
      vertex 2.24098 3.45106 5.5
      vertex 2.85902 3.45106 5.5
    endloop
  endfacet
  facet normal 0 1 0
    outer loop
      vertex 2.24098 3.45106 5.5
      vertex 2.85902 3.45106 1
      vertex 2.24098 3.45106 1
    endloop
  endfacet
  facet normal 0.587786 0.809017 -0
    outer loop
      vertex 3.35902 3.08778 1
      vertex 2.85902 3.45106 5.5
      vertex 3.35902 3.08778 5.5
    endloop
  endfacet
  facet normal 0.587786 0.809017 0
    outer loop
      vertex 2.85902 3.45106 5.5
      vertex 3.35902 3.08778 1
      vertex 2.85902 3.45106 1
    endloop
  endfacet
  facet normal 0 0 1
    outer loop
      vertex 3.35902 3.08778 5.5
      vertex 3.35902 1.91221 5.5
      vertex 3.55 2.5 5.5
    endloop
  endfacet
  facet normal 0 0 1
    outer loop
      vertex 2.85902 3.45106 5.5
      vertex 3.35902 1.91221 5.5
      vertex 3.35902 3.08778 5.5
    endloop
  endfacet
  facet normal 0 0 1
    outer loop
      vertex 2.85902 3.45106 5.5
      vertex 2.85902 1.54894 5.5
      vertex 3.35902 1.91221 5.5
    endloop
  endfacet
  facet normal -0 0 1
    outer loop
      vertex 2.24098 3.45106 5.5
      vertex 2.85902 1.54894 5.5
      vertex 2.85902 3.45106 5.5
    endloop
  endfacet
  facet normal 0 0 1
    outer loop
      vertex 2.24098 3.45106 5.5
      vertex 2.24098 1.54894 5.5
      vertex 2.85902 1.54894 5.5
    endloop
  endfacet
  facet normal -0 0 1
    outer loop
      vertex 1.74098 3.08778 5.5
      vertex 2.24098 1.54894 5.5
      vertex 2.24098 3.45106 5.5
    endloop
  endfacet
  facet normal 0 0 1
    outer loop
      vertex 1.74098 3.08778 5.5
      vertex 1.74098 1.91221 5.5
      vertex 2.24098 1.54894 5.5
    endloop
  endfacet
  facet normal 0 -0 1
    outer loop
      vertex 1.74098 1.91221 5.5
      vertex 1.74098 3.08778 5.5
      vertex 1.55 2.5 5.5
    endloop
  endfacet
  facet normal 0.587786 -0.809017 0
    outer loop
      vertex 2.85902 1.54894 1
      vertex 3.35902 1.91221 5.5
      vertex 2.85902 1.54894 5.5
    endloop
  endfacet
  facet normal 0.587786 -0.809017 0
    outer loop
      vertex 3.35902 1.91221 5.5
      vertex 2.85902 1.54894 1
      vertex 3.35902 1.91221 1
    endloop
  endfacet
  facet normal -0.587786 -0.809017 0
    outer loop
      vertex 1.74098 1.91221 1
      vertex 2.24098 1.54894 5.5
      vertex 1.74098 1.91221 5.5
    endloop
  endfacet
  facet normal -0.587786 -0.809017 -0
    outer loop
      vertex 2.24098 1.54894 5.5
      vertex 1.74098 1.91221 1
      vertex 2.24098 1.54894 1
    endloop
  endfacet
  facet normal -0.951057 0.309017 0
    outer loop
      vertex 1.55 2.5 1
      vertex 1.74098 3.08778 5.5
      vertex 1.74098 3.08778 1
    endloop
  endfacet
  facet normal -0.951057 0.309017 0
    outer loop
      vertex 1.74098 3.08778 5.5
      vertex 1.55 2.5 1
      vertex 1.55 2.5 5.5
    endloop
  endfacet
  facet normal -0.951057 -0.309016 0
    outer loop
      vertex 1.74098 1.91221 1
      vertex 1.55 2.5 5.5
      vertex 1.55 2.5 1
    endloop
  endfacet
  facet normal -0.951057 -0.309016 0
    outer loop
      vertex 1.55 2.5 5.5
      vertex 1.74098 1.91221 1
      vertex 1.74098 1.91221 5.5
    endloop
  endfacet
  facet normal -0.587786 0.809017 0
    outer loop
      vertex 2.24098 3.45106 1
      vertex 1.74098 3.08778 5.5
      vertex 2.24098 3.45106 5.5
    endloop
  endfacet
  facet normal -0.587786 0.809017 0
    outer loop
      vertex 1.74098 3.08778 5.5
      vertex 2.24098 3.45106 1
      vertex 1.74098 3.08778 1
    endloop
  endfacet
  facet normal 0.951057 -0.309016 0
    outer loop
      vertex 3.35902 1.91221 5.5
      vertex 3.55 2.5 1
      vertex 3.55 2.5 5.5
    endloop
  endfacet
  facet normal 0.951057 -0.309016 0
    outer loop
      vertex 3.55 2.5 1
      vertex 3.35902 1.91221 5.5
      vertex 3.35902 1.91221 1
    endloop
  endfacet
  facet normal 0 -1 0
    outer loop
      vertex 2.24098 1.54894 1
      vertex 2.85902 1.54894 5.5
      vertex 2.24098 1.54894 5.5
    endloop
  endfacet
  facet normal 0 -1 -0
    outer loop
      vertex 2.85902 1.54894 5.5
      vertex 2.24098 1.54894 1
      vertex 2.85902 1.54894 1
    endloop
  endfacet
  facet normal 0.951057 0.309016 0
    outer loop
      vertex 3.55 20.35 5.5
      vertex 3.35902 20.9378 1
      vertex 3.35902 20.9378 5.5
    endloop
  endfacet
  facet normal 0.951057 0.309016 0
    outer loop
      vertex 3.35902 20.9378 1
      vertex 3.55 20.35 5.5
      vertex 3.55 20.35 1
    endloop
  endfacet
  facet normal -0.951057 0.309016 0
    outer loop
      vertex 1.55 20.35 1
      vertex 1.74098 20.9378 5.5
      vertex 1.74098 20.9378 1
    endloop
  endfacet
  facet normal -0.951057 0.309016 0
    outer loop
      vertex 1.74098 20.9378 5.5
      vertex 1.55 20.35 1
      vertex 1.55 20.35 5.5
    endloop
  endfacet
  facet normal 0 -1 0
    outer loop
      vertex 2.24098 19.3989 1
      vertex 2.85902 19.3989 5.5
      vertex 2.24098 19.3989 5.5
    endloop
  endfacet
  facet normal 0 -1 -0
    outer loop
      vertex 2.85902 19.3989 5.5
      vertex 2.24098 19.3989 1
      vertex 2.85902 19.3989 1
    endloop
  endfacet
  facet normal 0 1 -0
    outer loop
      vertex 2.85902 21.3011 1
      vertex 2.24098 21.3011 5.5
      vertex 2.85902 21.3011 5.5
    endloop
  endfacet
  facet normal 0 1 0
    outer loop
      vertex 2.24098 21.3011 5.5
      vertex 2.85902 21.3011 1
      vertex 2.24098 21.3011 1
    endloop
  endfacet
  facet normal 0.587784 0.809018 -0
    outer loop
      vertex 3.35902 20.9378 1
      vertex 2.85902 21.3011 5.5
      vertex 3.35902 20.9378 5.5
    endloop
  endfacet
  facet normal 0.587784 0.809018 0
    outer loop
      vertex 2.85902 21.3011 5.5
      vertex 3.35902 20.9378 1
      vertex 2.85902 21.3011 1
    endloop
  endfacet
  facet normal 0 0 1
    outer loop
      vertex 3.35902 20.9378 5.5
      vertex 3.35902 19.7622 5.5
      vertex 3.55 20.35 5.5
    endloop
  endfacet
  facet normal 0 0 1
    outer loop
      vertex 2.85902 21.3011 5.5
      vertex 3.35902 19.7622 5.5
      vertex 3.35902 20.9378 5.5
    endloop
  endfacet
  facet normal 0 0 1
    outer loop
      vertex 2.85902 21.3011 5.5
      vertex 2.85902 19.3989 5.5
      vertex 3.35902 19.7622 5.5
    endloop
  endfacet
  facet normal -0 0 1
    outer loop
      vertex 2.24098 21.3011 5.5
      vertex 2.85902 19.3989 5.5
      vertex 2.85902 21.3011 5.5
    endloop
  endfacet
  facet normal 0 0 1
    outer loop
      vertex 2.24098 21.3011 5.5
      vertex 2.24098 19.3989 5.5
      vertex 2.85902 19.3989 5.5
    endloop
  endfacet
  facet normal -0 0 1
    outer loop
      vertex 1.74098 20.9378 5.5
      vertex 2.24098 19.3989 5.5
      vertex 2.24098 21.3011 5.5
    endloop
  endfacet
  facet normal 0 0 1
    outer loop
      vertex 1.74098 20.9378 5.5
      vertex 1.74098 19.7622 5.5
      vertex 2.24098 19.3989 5.5
    endloop
  endfacet
  facet normal 0 -0 1
    outer loop
      vertex 1.74098 19.7622 5.5
      vertex 1.74098 20.9378 5.5
      vertex 1.55 20.35 5.5
    endloop
  endfacet
  facet normal -0.587784 0.809018 0
    outer loop
      vertex 2.24098 21.3011 1
      vertex 1.74098 20.9378 5.5
      vertex 2.24098 21.3011 5.5
    endloop
  endfacet
  facet normal -0.587784 0.809018 0
    outer loop
      vertex 1.74098 20.9378 5.5
      vertex 2.24098 21.3011 1
      vertex 1.74098 20.9378 1
    endloop
  endfacet
  facet normal 0.951056 -0.309017 0
    outer loop
      vertex 3.35902 19.7622 5.5
      vertex 3.55 20.35 1
      vertex 3.55 20.35 5.5
    endloop
  endfacet
  facet normal 0.951056 -0.309017 0
    outer loop
      vertex 3.55 20.35 1
      vertex 3.35902 19.7622 5.5
      vertex 3.35902 19.7622 1
    endloop
  endfacet
  facet normal 0.587786 -0.809017 0
    outer loop
      vertex 2.85902 19.3989 1
      vertex 3.35902 19.7622 5.5
      vertex 2.85902 19.3989 5.5
    endloop
  endfacet
  facet normal 0.587786 -0.809017 0
    outer loop
      vertex 3.35902 19.7622 5.5
      vertex 2.85902 19.3989 1
      vertex 3.35902 19.7622 1
    endloop
  endfacet
  facet normal -0.587786 -0.809017 0
    outer loop
      vertex 1.74098 19.7622 1
      vertex 2.24098 19.3989 5.5
      vertex 1.74098 19.7622 5.5
    endloop
  endfacet
  facet normal -0.587786 -0.809017 -0
    outer loop
      vertex 2.24098 19.3989 5.5
      vertex 1.74098 19.7622 1
      vertex 2.24098 19.3989 1
    endloop
  endfacet
  facet normal -0.951056 -0.309017 0
    outer loop
      vertex 1.74098 19.7622 1
      vertex 1.55 20.35 5.5
      vertex 1.55 20.35 1
    endloop
  endfacet
  facet normal -0.951056 -0.309017 0
    outer loop
      vertex 1.55 20.35 5.5
      vertex 1.74098 19.7622 1
      vertex 1.74098 19.7622 5.5
    endloop
  endfacet
  facet normal 0.951057 0.309016 0
    outer loop
      vertex 49.25 1.85 5.5
      vertex 49.059 2.43779 1
      vertex 49.059 2.43779 5.5
    endloop
  endfacet
  facet normal 0.951057 0.309016 0
    outer loop
      vertex 49.059 2.43779 1
      vertex 49.25 1.85 5.5
      vertex 49.25 1.85 1
    endloop
  endfacet
  facet normal -0.587785 0.809017 0
    outer loop
      vertex 47.941 2.80106 1
      vertex 47.441 2.43779 5.5
      vertex 47.941 2.80106 5.5
    endloop
  endfacet
  facet normal -0.587785 0.809017 0
    outer loop
      vertex 47.441 2.43779 5.5
      vertex 47.941 2.80106 1
      vertex 47.441 2.43779 1
    endloop
  endfacet
  facet normal 0.587785 0.809017 -0
    outer loop
      vertex 49.059 2.43779 1
      vertex 48.559 2.80106 5.5
      vertex 49.059 2.43779 5.5
    endloop
  endfacet
  facet normal 0.587785 0.809017 0
    outer loop
      vertex 48.559 2.80106 5.5
      vertex 49.059 2.43779 1
      vertex 48.559 2.80106 1
    endloop
  endfacet
  facet normal 0 0 1
    outer loop
      vertex 49.059 2.43779 5.5
      vertex 49.059 1.26221 5.5
      vertex 49.25 1.85 5.5
    endloop
  endfacet
  facet normal 0 0 1
    outer loop
      vertex 48.559 2.80106 5.5
      vertex 49.059 1.26221 5.5
      vertex 49.059 2.43779 5.5
    endloop
  endfacet
  facet normal 0 0 1
    outer loop
      vertex 48.559 2.80106 5.5
      vertex 48.559 0.898943 5.5
      vertex 49.059 1.26221 5.5
    endloop
  endfacet
  facet normal -0 0 1
    outer loop
      vertex 47.941 2.80106 5.5
      vertex 48.559 0.898943 5.5
      vertex 48.559 2.80106 5.5
    endloop
  endfacet
  facet normal 0 0 1
    outer loop
      vertex 47.941 2.80106 5.5
      vertex 47.941 0.898943 5.5
      vertex 48.559 0.898943 5.5
    endloop
  endfacet
  facet normal -0 0 1
    outer loop
      vertex 47.441 2.43779 5.5
      vertex 47.941 0.898943 5.5
      vertex 47.941 2.80106 5.5
    endloop
  endfacet
  facet normal 0 0 1
    outer loop
      vertex 47.441 2.43779 5.5
      vertex 47.441 1.26221 5.5
      vertex 47.941 0.898943 5.5
    endloop
  endfacet
  facet normal 0 -0 1
    outer loop
      vertex 47.441 1.26221 5.5
      vertex 47.441 2.43779 5.5
      vertex 47.25 1.85 5.5
    endloop
  endfacet
  facet normal -0.951057 0.309016 0
    outer loop
      vertex 47.25 1.85 1
      vertex 47.441 2.43779 5.5
      vertex 47.441 2.43779 1
    endloop
  endfacet
  facet normal -0.951057 0.309016 0
    outer loop
      vertex 47.441 2.43779 5.5
      vertex 47.25 1.85 1
      vertex 47.25 1.85 5.5
    endloop
  endfacet
  facet normal 0.587786 -0.809017 0
    outer loop
      vertex 48.559 0.898943 1
      vertex 49.059 1.26221 5.5
      vertex 48.559 0.898943 5.5
    endloop
  endfacet
  facet normal 0.587786 -0.809017 0
    outer loop
      vertex 49.059 1.26221 5.5
      vertex 48.559 0.898943 1
      vertex 49.059 1.26221 1
    endloop
  endfacet
  facet normal -0.587786 -0.809017 0
    outer loop
      vertex 47.441 1.26221 1
      vertex 47.941 0.898943 5.5
      vertex 47.441 1.26221 5.5
    endloop
  endfacet
  facet normal -0.587786 -0.809017 -0
    outer loop
      vertex 47.941 0.898943 5.5
      vertex 47.441 1.26221 1
      vertex 47.941 0.898943 1
    endloop
  endfacet
  facet normal 0 1 -0
    outer loop
      vertex 48.559 2.80106 1
      vertex 47.941 2.80106 5.5
      vertex 48.559 2.80106 5.5
    endloop
  endfacet
  facet normal 0 1 0
    outer loop
      vertex 47.941 2.80106 5.5
      vertex 48.559 2.80106 1
      vertex 47.941 2.80106 1
    endloop
  endfacet
  facet normal -0.951057 -0.309017 0
    outer loop
      vertex 47.441 1.26221 1
      vertex 47.25 1.85 5.5
      vertex 47.25 1.85 1
    endloop
  endfacet
  facet normal -0.951057 -0.309017 0
    outer loop
      vertex 47.25 1.85 5.5
      vertex 47.441 1.26221 1
      vertex 47.441 1.26221 5.5
    endloop
  endfacet
  facet normal 0.951057 -0.309017 0
    outer loop
      vertex 49.059 1.26221 5.5
      vertex 49.25 1.85 1
      vertex 49.25 1.85 5.5
    endloop
  endfacet
  facet normal 0.951057 -0.309017 0
    outer loop
      vertex 49.25 1.85 1
      vertex 49.059 1.26221 5.5
      vertex 49.059 1.26221 1
    endloop
  endfacet
  facet normal 0 -1 0
    outer loop
      vertex 47.941 0.898943 1
      vertex 48.559 0.898943 5.5
      vertex 47.941 0.898943 5.5
    endloop
  endfacet
  facet normal 0 -1 -0
    outer loop
      vertex 48.559 0.898943 5.5
      vertex 47.941 0.898943 1
      vertex 48.559 0.898943 1
    endloop
  endfacet
  facet normal 0.951056 0.309017 0
    outer loop
      vertex 49.25 20.95 5.5
      vertex 49.059 21.5378 1
      vertex 49.059 21.5378 5.5
    endloop
  endfacet
  facet normal 0.951056 0.309017 0
    outer loop
      vertex 49.059 21.5378 1
      vertex 49.25 20.95 5.5
      vertex 49.25 20.95 1
    endloop
  endfacet
  facet normal 0.587784 -0.809018 0
    outer loop
      vertex 48.559 19.9989 1
      vertex 49.059 20.3622 5.5
      vertex 48.559 19.9989 5.5
    endloop
  endfacet
  facet normal 0.587784 -0.809018 0
    outer loop
      vertex 49.059 20.3622 5.5
      vertex 48.559 19.9989 1
      vertex 49.059 20.3622 1
    endloop
  endfacet
  facet normal 0 1 -0
    outer loop
      vertex 48.559 21.9011 1
      vertex 47.941 21.9011 5.5
      vertex 48.559 21.9011 5.5
    endloop
  endfacet
  facet normal 0 1 0
    outer loop
      vertex 47.941 21.9011 5.5
      vertex 48.559 21.9011 1
      vertex 47.941 21.9011 1
    endloop
  endfacet
  facet normal 0.587786 0.809017 -0
    outer loop
      vertex 49.059 21.5378 1
      vertex 48.559 21.9011 5.5
      vertex 49.059 21.5378 5.5
    endloop
  endfacet
  facet normal 0.587786 0.809017 0
    outer loop
      vertex 48.559 21.9011 5.5
      vertex 49.059 21.5378 1
      vertex 48.559 21.9011 1
    endloop
  endfacet
  facet normal 0.951057 -0.309016 0
    outer loop
      vertex 49.059 20.3622 5.5
      vertex 49.25 20.95 1
      vertex 49.25 20.95 5.5
    endloop
  endfacet
  facet normal 0.951057 -0.309016 0
    outer loop
      vertex 49.25 20.95 1
      vertex 49.059 20.3622 5.5
      vertex 49.059 20.3622 1
    endloop
  endfacet
  facet normal -0.951056 0.309017 0
    outer loop
      vertex 47.25 20.95 1
      vertex 47.441 21.5378 5.5
      vertex 47.441 21.5378 1
    endloop
  endfacet
  facet normal -0.951056 0.309017 0
    outer loop
      vertex 47.441 21.5378 5.5
      vertex 47.25 20.95 1
      vertex 47.25 20.95 5.5
    endloop
  endfacet
  facet normal -0.951057 -0.309016 0
    outer loop
      vertex 47.441 20.3622 1
      vertex 47.25 20.95 5.5
      vertex 47.25 20.95 1
    endloop
  endfacet
  facet normal -0.951057 -0.309016 0
    outer loop
      vertex 47.25 20.95 5.5
      vertex 47.441 20.3622 1
      vertex 47.441 20.3622 5.5
    endloop
  endfacet
  facet normal -0.587786 0.809017 0
    outer loop
      vertex 47.941 21.9011 1
      vertex 47.441 21.5378 5.5
      vertex 47.941 21.9011 5.5
    endloop
  endfacet
  facet normal -0.587786 0.809017 0
    outer loop
      vertex 47.441 21.5378 5.5
      vertex 47.941 21.9011 1
      vertex 47.441 21.5378 1
    endloop
  endfacet
  facet normal -0.587784 -0.809018 0
    outer loop
      vertex 47.441 20.3622 1
      vertex 47.941 19.9989 5.5
      vertex 47.441 20.3622 5.5
    endloop
  endfacet
  facet normal -0.587784 -0.809018 -0
    outer loop
      vertex 47.941 19.9989 5.5
      vertex 47.441 20.3622 1
      vertex 47.941 19.9989 1
    endloop
  endfacet
  facet normal 0 0 1
    outer loop
      vertex 49.059 21.5378 5.5
      vertex 49.059 20.3622 5.5
      vertex 49.25 20.95 5.5
    endloop
  endfacet
  facet normal 0 0 1
    outer loop
      vertex 48.559 21.9011 5.5
      vertex 49.059 20.3622 5.5
      vertex 49.059 21.5378 5.5
    endloop
  endfacet
  facet normal 0 0 1
    outer loop
      vertex 48.559 21.9011 5.5
      vertex 48.559 19.9989 5.5
      vertex 49.059 20.3622 5.5
    endloop
  endfacet
  facet normal -0 0 1
    outer loop
      vertex 47.941 21.9011 5.5
      vertex 48.559 19.9989 5.5
      vertex 48.559 21.9011 5.5
    endloop
  endfacet
  facet normal 0 0 1
    outer loop
      vertex 47.941 21.9011 5.5
      vertex 47.941 19.9989 5.5
      vertex 48.559 19.9989 5.5
    endloop
  endfacet
  facet normal -0 0 1
    outer loop
      vertex 47.441 21.5378 5.5
      vertex 47.941 19.9989 5.5
      vertex 47.941 21.9011 5.5
    endloop
  endfacet
  facet normal 0 0 1
    outer loop
      vertex 47.441 21.5378 5.5
      vertex 47.441 20.3622 5.5
      vertex 47.941 19.9989 5.5
    endloop
  endfacet
  facet normal 0 -0 1
    outer loop
      vertex 47.441 20.3622 5.5
      vertex 47.441 21.5378 5.5
      vertex 47.25 20.95 5.5
    endloop
  endfacet
  facet normal 0 -1 0
    outer loop
      vertex 47.941 19.9989 1
      vertex 48.559 19.9989 5.5
      vertex 47.941 19.9989 5.5
    endloop
  endfacet
  facet normal 0 -1 -0
    outer loop
      vertex 48.559 19.9989 5.5
      vertex 47.941 19.9989 1
      vertex 48.559 19.9989 1
    endloop
  endfacet
  facet normal -1 0 0
    outer loop
      vertex 0 0 0
      vertex 0 23 1
      vertex 0 23 0
    endloop
  endfacet
  facet normal -1 -0 0
    outer loop
      vertex 0 23 1
      vertex 0 0 0
      vertex 0 0 1
    endloop
  endfacet
  facet normal -0 0 1
    outer loop
      vertex 3.35902 3.08778 1
      vertex 47.441 2.43779 1
      vertex 3.35902 19.7622 1
    endloop
  endfacet
  facet normal 0 0 1
    outer loop
      vertex 47.441 2.43779 1
      vertex 3.35902 3.08778 1
      vertex 3.55 2.5 1
    endloop
  endfacet
  facet normal -0 0 1
    outer loop
      vertex 2.85902 19.3989 1
      vertex 3.35902 3.08778 1
      vertex 3.35902 19.7622 1
    endloop
  endfacet
  facet normal 0 0 1
    outer loop
      vertex 2.85902 19.3989 1
      vertex 2.85902 3.45106 1
      vertex 3.35902 3.08778 1
    endloop
  endfacet
  facet normal -0 0 1
    outer loop
      vertex 2.24098 19.3989 1
      vertex 2.85902 3.45106 1
      vertex 2.85902 19.3989 1
    endloop
  endfacet
  facet normal 0 0 1
    outer loop
      vertex 2.24098 19.3989 1
      vertex 2.24098 3.45106 1
      vertex 2.85902 3.45106 1
    endloop
  endfacet
  facet normal 0 0 1
    outer loop
      vertex 1.74098 19.7622 1
      vertex 2.24098 3.45106 1
      vertex 2.24098 19.3989 1
    endloop
  endfacet
  facet normal 0 0 1
    outer loop
      vertex 1.74098 19.7622 1
      vertex 1.74098 3.08778 1
      vertex 2.24098 3.45106 1
    endloop
  endfacet
  facet normal 0 0 1
    outer loop
      vertex 0 23 1
      vertex 1.74098 19.7622 1
      vertex 1.55 20.35 1
    endloop
  endfacet
  facet normal 0 0 1
    outer loop
      vertex 1.74098 19.7622 1
      vertex 0 0 1
      vertex 1.74098 3.08778 1
    endloop
  endfacet
  facet normal -0 0 1
    outer loop
      vertex 49.059 2.43779 1
      vertex 51 0 1
      vertex 49.059 20.3622 1
    endloop
  endfacet
  facet normal 0 0 1
    outer loop
      vertex 51 0 1
      vertex 49.059 2.43779 1
      vertex 49.25 1.85 1
    endloop
  endfacet
  facet normal -0 0 1
    outer loop
      vertex 48.559 19.9989 1
      vertex 49.059 2.43779 1
      vertex 49.059 20.3622 1
    endloop
  endfacet
  facet normal 0 0 1
    outer loop
      vertex 48.559 19.9989 1
      vertex 48.559 2.80106 1
      vertex 49.059 2.43779 1
    endloop
  endfacet
  facet normal -0 0 1
    outer loop
      vertex 47.941 19.9989 1
      vertex 48.559 2.80106 1
      vertex 48.559 19.9989 1
    endloop
  endfacet
  facet normal 0 0 1
    outer loop
      vertex 47.941 19.9989 1
      vertex 47.941 2.80106 1
      vertex 48.559 2.80106 1
    endloop
  endfacet
  facet normal 0 0 1
    outer loop
      vertex 47.441 20.3622 1
      vertex 47.941 2.80106 1
      vertex 47.941 19.9989 1
    endloop
  endfacet
  facet normal 0 0 1
    outer loop
      vertex 47.441 20.3622 1
      vertex 47.441 2.43779 1
      vertex 47.941 2.80106 1
    endloop
  endfacet
  facet normal 0 0 1
    outer loop
      vertex 3.55 20.35 1
      vertex 47.441 20.3622 1
      vertex 47.25 20.95 1
    endloop
  endfacet
  facet normal 0 0 1
    outer loop
      vertex 3.35902 19.7622 1
      vertex 47.441 20.3622 1
      vertex 3.55 20.35 1
    endloop
  endfacet
  facet normal 0 0 1
    outer loop
      vertex 49.059 20.3622 1
      vertex 51 23 1
      vertex 49.25 20.95 1
    endloop
  endfacet
  facet normal 0 0 1
    outer loop
      vertex 51 23 1
      vertex 49.059 21.5378 1
      vertex 49.25 20.95 1
    endloop
  endfacet
  facet normal 0 0 1
    outer loop
      vertex 51 23 1
      vertex 48.559 21.9011 1
      vertex 49.059 21.5378 1
    endloop
  endfacet
  facet normal 0 0 1
    outer loop
      vertex 51 23 1
      vertex 47.941 21.9011 1
      vertex 48.559 21.9011 1
    endloop
  endfacet
  facet normal 0 0 1
    outer loop
      vertex 47.441 20.3622 1
      vertex 3.35902 19.7622 1
      vertex 47.441 2.43779 1
    endloop
  endfacet
  facet normal 0 0 1
    outer loop
      vertex 3.35902 20.9378 1
      vertex 47.25 20.95 1
      vertex 47.441 21.5378 1
    endloop
  endfacet
  facet normal 0 0 1
    outer loop
      vertex 2.85902 21.3011 1
      vertex 47.441 21.5378 1
      vertex 47.941 21.9011 1
    endloop
  endfacet
  facet normal -0 0 1
    outer loop
      vertex 0 23 1
      vertex 47.941 21.9011 1
      vertex 51 23 1
    endloop
  endfacet
  facet normal 0 0 1
    outer loop
      vertex 47.25 20.95 1
      vertex 3.35902 20.9378 1
      vertex 3.55 20.35 1
    endloop
  endfacet
  facet normal 0 0 1
    outer loop
      vertex 47.441 21.5378 1
      vertex 2.85902 21.3011 1
      vertex 3.35902 20.9378 1
    endloop
  endfacet
  facet normal 0 0 1
    outer loop
      vertex 47.941 21.9011 1
      vertex 0 23 1
      vertex 2.85902 21.3011 1
    endloop
  endfacet
  facet normal 0 0 1
    outer loop
      vertex 1.74098 19.7622 1
      vertex 0 23 1
      vertex 0 0 1
    endloop
  endfacet
  facet normal 0 0 1
    outer loop
      vertex 1.74098 20.9378 1
      vertex 0 23 1
      vertex 1.55 20.35 1
    endloop
  endfacet
  facet normal 0 0 1
    outer loop
      vertex 2.24098 21.3011 1
      vertex 0 23 1
      vertex 1.74098 20.9378 1
    endloop
  endfacet
  facet normal 0 0 1
    outer loop
      vertex 2.85902 21.3011 1
      vertex 0 23 1
      vertex 2.24098 21.3011 1
    endloop
  endfacet
  facet normal 0 0 1
    outer loop
      vertex 51 23 1
      vertex 49.059 20.3622 1
      vertex 51 0 1
    endloop
  endfacet
  facet normal -0 0 1
    outer loop
      vertex 49.059 1.26221 1
      vertex 51 0 1
      vertex 49.25 1.85 1
    endloop
  endfacet
  facet normal -0 0 1
    outer loop
      vertex 48.559 0.898943 1
      vertex 51 0 1
      vertex 49.059 1.26221 1
    endloop
  endfacet
  facet normal -0 0 1
    outer loop
      vertex 47.941 0.898943 1
      vertex 51 0 1
      vertex 48.559 0.898943 1
    endloop
  endfacet
  facet normal 0 0 1
    outer loop
      vertex 47.441 2.43779 1
      vertex 3.55 2.5 1
      vertex 47.25 1.85 1
    endloop
  endfacet
  facet normal -0 0 1
    outer loop
      vertex 3.35902 1.91221 1
      vertex 47.25 1.85 1
      vertex 3.55 2.5 1
    endloop
  endfacet
  facet normal 0 0 1
    outer loop
      vertex 47.25 1.85 1
      vertex 3.35902 1.91221 1
      vertex 47.441 1.26221 1
    endloop
  endfacet
  facet normal -0 0 1
    outer loop
      vertex 2.85902 1.54894 1
      vertex 47.441 1.26221 1
      vertex 3.35902 1.91221 1
    endloop
  endfacet
  facet normal 0 0 1
    outer loop
      vertex 47.441 1.26221 1
      vertex 2.85902 1.54894 1
      vertex 47.941 0.898943 1
    endloop
  endfacet
  facet normal 0 0 1
    outer loop
      vertex 0 0 1
      vertex 47.941 0.898943 1
      vertex 2.85902 1.54894 1
    endloop
  endfacet
  facet normal 0 0 1
    outer loop
      vertex 0 0 1
      vertex 2.85902 1.54894 1
      vertex 2.24098 1.54894 1
    endloop
  endfacet
  facet normal 0 0 1
    outer loop
      vertex 47.941 0.898943 1
      vertex 0 0 1
      vertex 51 0 1
    endloop
  endfacet
  facet normal 0 0 1
    outer loop
      vertex 1.74098 1.91221 1
      vertex 0 0 1
      vertex 2.24098 1.54894 1
    endloop
  endfacet
  facet normal 0 0 1
    outer loop
      vertex 1.55 2.5 1
      vertex 0 0 1
      vertex 1.74098 1.91221 1
    endloop
  endfacet
  facet normal 0 0 1
    outer loop
      vertex 1.74098 3.08778 1
      vertex 0 0 1
      vertex 1.55 2.5 1
    endloop
  endfacet
  facet normal 1 -0 0
    outer loop
      vertex 51 0 1
      vertex 51 23 0
      vertex 51 23 1
    endloop
  endfacet
  facet normal 1 0 0
    outer loop
      vertex 51 23 0
      vertex 51 0 1
      vertex 51 0 0
    endloop
  endfacet
  facet normal 0 0 -1
    outer loop
      vertex 0 0 0
      vertex 51 23 0
      vertex 51 0 0
    endloop
  endfacet
  facet normal -0 0 -1
    outer loop
      vertex 51 23 0
      vertex 0 0 0
      vertex 0 23 0
    endloop
  endfacet
  facet normal 0 -1 0
    outer loop
      vertex 0 0 0
      vertex 51 0 1
      vertex 0 0 1
    endloop
  endfacet
  facet normal 0 -1 -0
    outer loop
      vertex 51 0 1
      vertex 0 0 0
      vertex 51 0 0
    endloop
  endfacet
  facet normal 0 1 -0
    outer loop
      vertex 51 23 0
      vertex 0 23 1
      vertex 51 23 1
    endloop
  endfacet
  facet normal 0 1 0
    outer loop
      vertex 0 23 1
      vertex 51 23 0
      vertex 0 23 0
    endloop
  endfacet
endsolid OpenSCAD_Model
