solid OpenSCAD_Model
  facet normal -1 0 0
    outer loop
      vertex 0 0 0
      vertex 0 23 1
      vertex 0 23 0
    endloop
  endfacet
  facet normal -1 -0 0
    outer loop
      vertex 0 23 1
      vertex 0 0 0
      vertex 0 0 1
    endloop
  endfacet
  facet normal -0 0 1
    outer loop
      vertex 2.24098 19.5489 1
      vertex 4 19 1
      vertex 2.85902 19.5489 1
    endloop
  endfacet
  facet normal 0 0 1
    outer loop
      vertex 4 4 1
      vertex 3.35902 3.08778 1
      vertex 3.55 2.5 1
    endloop
  endfacet
  facet normal 0 0 1
    outer loop
      vertex 4 19 1
      vertex 2.24098 19.5489 1
      vertex 4 4 1
    endloop
  endfacet
  facet normal 0 0 1
    outer loop
      vertex 4 4 1
      vertex 2.85902 3.45106 1
      vertex 3.35902 3.08778 1
    endloop
  endfacet
  facet normal 0 0 1
    outer loop
      vertex 2.24098 3.45106 1
      vertex 4 4 1
      vertex 2.24098 19.5489 1
    endloop
  endfacet
  facet normal 0 0 1
    outer loop
      vertex 4 4 1
      vertex 2.24098 3.45106 1
      vertex 2.85902 3.45106 1
    endloop
  endfacet
  facet normal 0 0 1
    outer loop
      vertex 1.74098 19.9122 1
      vertex 2.24098 3.45106 1
      vertex 2.24098 19.5489 1
    endloop
  endfacet
  facet normal 0 0 1
    outer loop
      vertex 1.74098 19.9122 1
      vertex 1.74098 3.08778 1
      vertex 2.24098 3.45106 1
    endloop
  endfacet
  facet normal 0 0 1
    outer loop
      vertex 0 23 1
      vertex 1.74098 19.9122 1
      vertex 1.55 20.5 1
    endloop
  endfacet
  facet normal 0 0 1
    outer loop
      vertex 1.74098 19.9122 1
      vertex 0 23 1
      vertex 1.74098 3.08778 1
    endloop
  endfacet
  facet normal -0 0 1
    outer loop
      vertex 49.359 3.08778 1
      vertex 51 0 1
      vertex 49.359 19.9122 1
    endloop
  endfacet
  facet normal 0 0 1
    outer loop
      vertex 51 0 1
      vertex 49.359 3.08778 1
      vertex 49.55 2.5 1
    endloop
  endfacet
  facet normal -0 0 1
    outer loop
      vertex 48.859 19.5489 1
      vertex 49.359 3.08778 1
      vertex 49.359 19.9122 1
    endloop
  endfacet
  facet normal 0 0 1
    outer loop
      vertex 48.859 19.5489 1
      vertex 48.859 3.45106 1
      vertex 49.359 3.08778 1
    endloop
  endfacet
  facet normal 0 0 1
    outer loop
      vertex 47 19 1
      vertex 48.859 19.5489 1
      vertex 48.241 19.5489 1
    endloop
  endfacet
  facet normal 0 0 1
    outer loop
      vertex 48.859 19.5489 1
      vertex 47 19 1
      vertex 48.859 3.45106 1
    endloop
  endfacet
  facet normal 0 0 1
    outer loop
      vertex 47 19 1
      vertex 48.241 19.5489 1
      vertex 47.741 19.9122 1
    endloop
  endfacet
  facet normal -0 0 1
    outer loop
      vertex 47 4 1
      vertex 48.859 3.45106 1
      vertex 47 19 1
    endloop
  endfacet
  facet normal 0 0 1
    outer loop
      vertex 47 19 1
      vertex 47.741 19.9122 1
      vertex 47.55 20.5 1
    endloop
  endfacet
  facet normal 0 0 1
    outer loop
      vertex 48.859 3.45106 1
      vertex 47 4 1
      vertex 48.241 3.45106 1
    endloop
  endfacet
  facet normal 0 0 1
    outer loop
      vertex 49.359 19.9122 1
      vertex 51 23 1
      vertex 49.55 20.5 1
    endloop
  endfacet
  facet normal 0 0 1
    outer loop
      vertex 51 23 1
      vertex 49.359 21.0878 1
      vertex 49.55 20.5 1
    endloop
  endfacet
  facet normal 0 0 1
    outer loop
      vertex 51 23 1
      vertex 48.859 21.4511 1
      vertex 49.359 21.0878 1
    endloop
  endfacet
  facet normal 0 0 1
    outer loop
      vertex 51 23 1
      vertex 48.241 21.4511 1
      vertex 48.859 21.4511 1
    endloop
  endfacet
  facet normal 0 0 1
    outer loop
      vertex 48.241 3.45106 1
      vertex 47 4 1
      vertex 47.741 3.08778 1
    endloop
  endfacet
  facet normal 0 0 1
    outer loop
      vertex 3.55 20.5 1
      vertex 47.55 20.5 1
      vertex 47.741 21.0878 1
    endloop
  endfacet
  facet normal 0 0 1
    outer loop
      vertex 47.55 20.5 1
      vertex 3.55 20.5 1
      vertex 47 19 1
    endloop
  endfacet
  facet normal 0 0 1
    outer loop
      vertex 3.35902 21.0878 1
      vertex 47.741 21.0878 1
      vertex 48.241 21.4511 1
    endloop
  endfacet
  facet normal 0 0 1
    outer loop
      vertex 2.85902 21.4511 1
      vertex 48.241 21.4511 1
      vertex 51 23 1
    endloop
  endfacet
  facet normal -0 0 1
    outer loop
      vertex 3.35902 19.9122 1
      vertex 4 19 1
      vertex 3.55 20.5 1
    endloop
  endfacet
  facet normal 0 0 1
    outer loop
      vertex 47 19 1
      vertex 3.55 20.5 1
      vertex 4 19 1
    endloop
  endfacet
  facet normal 0 0 1
    outer loop
      vertex 47.741 21.0878 1
      vertex 3.35902 21.0878 1
      vertex 3.55 20.5 1
    endloop
  endfacet
  facet normal 0 0 1
    outer loop
      vertex 48.241 21.4511 1
      vertex 2.85902 21.4511 1
      vertex 3.35902 21.0878 1
    endloop
  endfacet
  facet normal -0 0 1
    outer loop
      vertex 0 23 1
      vertex 2.85902 21.4511 1
      vertex 51 23 1
    endloop
  endfacet
  facet normal 0 0 1
    outer loop
      vertex 0 0 1
      vertex 1.74098 3.08778 1
      vertex 0 23 1
    endloop
  endfacet
  facet normal 0 0 1
    outer loop
      vertex 1.74098 21.0878 1
      vertex 0 23 1
      vertex 1.55 20.5 1
    endloop
  endfacet
  facet normal 0 0 1
    outer loop
      vertex 2.24098 21.4511 1
      vertex 0 23 1
      vertex 1.74098 21.0878 1
    endloop
  endfacet
  facet normal 0 0 1
    outer loop
      vertex 2.85902 21.4511 1
      vertex 0 23 1
      vertex 2.24098 21.4511 1
    endloop
  endfacet
  facet normal 0 0 1
    outer loop
      vertex 51 23 1
      vertex 49.359 19.9122 1
      vertex 51 0 1
    endloop
  endfacet
  facet normal -0 0 1
    outer loop
      vertex 49.359 1.91221 1
      vertex 51 0 1
      vertex 49.55 2.5 1
    endloop
  endfacet
  facet normal -0 0 1
    outer loop
      vertex 48.859 1.54894 1
      vertex 51 0 1
      vertex 49.359 1.91221 1
    endloop
  endfacet
  facet normal -0 0 1
    outer loop
      vertex 48.241 1.54894 1
      vertex 51 0 1
      vertex 48.859 1.54894 1
    endloop
  endfacet
  facet normal 0 0 1
    outer loop
      vertex 47.741 3.08778 1
      vertex 47 4 1
      vertex 47.55 2.5 1
    endloop
  endfacet
  facet normal 0 0 1
    outer loop
      vertex 3.55 2.5 1
      vertex 47.55 2.5 1
      vertex 47 4 1
    endloop
  endfacet
  facet normal 0 0 1
    outer loop
      vertex 3.55 2.5 1
      vertex 47 4 1
      vertex 4 4 1
    endloop
  endfacet
  facet normal 0 0 1
    outer loop
      vertex 47.55 2.5 1
      vertex 3.55 2.5 1
      vertex 47.741 1.91221 1
    endloop
  endfacet
  facet normal 0 0 1
    outer loop
      vertex 3.35902 1.91221 1
      vertex 47.741 1.91221 1
      vertex 3.55 2.5 1
    endloop
  endfacet
  facet normal -0 0 1
    outer loop
      vertex 2.85902 19.5489 1
      vertex 4 19 1
      vertex 3.35902 19.9122 1
    endloop
  endfacet
  facet normal 0 0 1
    outer loop
      vertex 47.741 1.91221 1
      vertex 3.35902 1.91221 1
      vertex 48.241 1.54894 1
    endloop
  endfacet
  facet normal 0 0 1
    outer loop
      vertex 2.85902 1.54894 1
      vertex 48.241 1.54894 1
      vertex 3.35902 1.91221 1
    endloop
  endfacet
  facet normal 0 0 1
    outer loop
      vertex 48.241 1.54894 1
      vertex 2.85902 1.54894 1
      vertex 51 0 1
    endloop
  endfacet
  facet normal 0 0 1
    outer loop
      vertex 0 0 1
      vertex 2.85902 1.54894 1
      vertex 2.24098 1.54894 1
    endloop
  endfacet
  facet normal 0 0 1
    outer loop
      vertex 2.85902 1.54894 1
      vertex 0 0 1
      vertex 51 0 1
    endloop
  endfacet
  facet normal 0 0 1
    outer loop
      vertex 1.74098 1.91221 1
      vertex 0 0 1
      vertex 2.24098 1.54894 1
    endloop
  endfacet
  facet normal 0 0 1
    outer loop
      vertex 1.55 2.5 1
      vertex 0 0 1
      vertex 1.74098 1.91221 1
    endloop
  endfacet
  facet normal 0 0 1
    outer loop
      vertex 1.74098 3.08778 1
      vertex 0 0 1
      vertex 1.55 2.5 1
    endloop
  endfacet
  facet normal 1 -0 0
    outer loop
      vertex 51 0 1
      vertex 51 23 0
      vertex 51 23 1
    endloop
  endfacet
  facet normal 1 0 0
    outer loop
      vertex 51 23 0
      vertex 51 0 1
      vertex 51 0 0
    endloop
  endfacet
  facet normal 0 1 -0
    outer loop
      vertex 51 23 0
      vertex 0 23 1
      vertex 51 23 1
    endloop
  endfacet
  facet normal 0 1 0
    outer loop
      vertex 0 23 1
      vertex 51 23 0
      vertex 0 23 0
    endloop
  endfacet
  facet normal 0 0 -1
    outer loop
      vertex 51 0 0
      vertex 47 4 0
      vertex 51 23 0
    endloop
  endfacet
  facet normal 0 0 -1
    outer loop
      vertex 51 0 0
      vertex 4 4 0
      vertex 47 4 0
    endloop
  endfacet
  facet normal -0 0 -1
    outer loop
      vertex 4 4 0
      vertex 0 0 0
      vertex 4 19 0
    endloop
  endfacet
  facet normal 0 0 -1
    outer loop
      vertex 0 0 0
      vertex 4 4 0
      vertex 51 0 0
    endloop
  endfacet
  facet normal 0 0 -1
    outer loop
      vertex 47 19 0
      vertex 51 23 0
      vertex 47 4 0
    endloop
  endfacet
  facet normal 0 0 -1
    outer loop
      vertex 4 19 0
      vertex 51 23 0
      vertex 47 19 0
    endloop
  endfacet
  facet normal 0 0 -1
    outer loop
      vertex 4 19 0
      vertex 0 23 0
      vertex 51 23 0
    endloop
  endfacet
  facet normal 0 0 -1
    outer loop
      vertex 0 23 0
      vertex 4 19 0
      vertex 0 0 0
    endloop
  endfacet
  facet normal 0 -1 0
    outer loop
      vertex 0 0 0
      vertex 51 0 1
      vertex 0 0 1
    endloop
  endfacet
  facet normal 0 -1 -0
    outer loop
      vertex 51 0 1
      vertex 0 0 0
      vertex 51 0 0
    endloop
  endfacet
  facet normal 1 -0 0
    outer loop
      vertex 4 4 1
      vertex 4 19 0
      vertex 4 19 1
    endloop
  endfacet
  facet normal 1 0 0
    outer loop
      vertex 4 19 0
      vertex 4 4 1
      vertex 4 4 0
    endloop
  endfacet
  facet normal -1 0 0
    outer loop
      vertex 47 4 0
      vertex 47 19 1
      vertex 47 19 0
    endloop
  endfacet
  facet normal -1 -0 0
    outer loop
      vertex 47 19 1
      vertex 47 4 0
      vertex 47 4 1
    endloop
  endfacet
  facet normal 0 1 -0
    outer loop
      vertex 47 4 0
      vertex 4 4 1
      vertex 47 4 1
    endloop
  endfacet
  facet normal 0 1 0
    outer loop
      vertex 4 4 1
      vertex 47 4 0
      vertex 4 4 0
    endloop
  endfacet
  facet normal 0 -1 0
    outer loop
      vertex 4 19 0
      vertex 47 19 1
      vertex 4 19 1
    endloop
  endfacet
  facet normal 0 -1 -0
    outer loop
      vertex 47 19 1
      vertex 4 19 0
      vertex 47 19 0
    endloop
  endfacet
  facet normal 0.951057 0.309017 0
    outer loop
      vertex 3.55 2.5 5.5
      vertex 3.35902 3.08778 1
      vertex 3.35902 3.08778 5.5
    endloop
  endfacet
  facet normal 0.951057 0.309017 0
    outer loop
      vertex 3.35902 3.08778 1
      vertex 3.55 2.5 5.5
      vertex 3.55 2.5 1
    endloop
  endfacet
  facet normal 0 1 -0
    outer loop
      vertex 2.85902 3.45106 1
      vertex 2.24098 3.45106 5.5
      vertex 2.85902 3.45106 5.5
    endloop
  endfacet
  facet normal 0 1 0
    outer loop
      vertex 2.24098 3.45106 5.5
      vertex 2.85902 3.45106 1
      vertex 2.24098 3.45106 1
    endloop
  endfacet
  facet normal 0.587786 0.809017 -0
    outer loop
      vertex 3.35902 3.08778 1
      vertex 2.85902 3.45106 5.5
      vertex 3.35902 3.08778 5.5
    endloop
  endfacet
  facet normal 0.587786 0.809017 0
    outer loop
      vertex 2.85902 3.45106 5.5
      vertex 3.35902 3.08778 1
      vertex 2.85902 3.45106 1
    endloop
  endfacet
  facet normal 0 0 1
    outer loop
      vertex 3.35902 3.08778 5.5
      vertex 3.35902 1.91221 5.5
      vertex 3.55 2.5 5.5
    endloop
  endfacet
  facet normal 0 0 1
    outer loop
      vertex 2.85902 3.45106 5.5
      vertex 3.35902 1.91221 5.5
      vertex 3.35902 3.08778 5.5
    endloop
  endfacet
  facet normal 0 0 1
    outer loop
      vertex 2.85902 3.45106 5.5
      vertex 2.85902 1.54894 5.5
      vertex 3.35902 1.91221 5.5
    endloop
  endfacet
  facet normal -0 0 1
    outer loop
      vertex 2.24098 3.45106 5.5
      vertex 2.85902 1.54894 5.5
      vertex 2.85902 3.45106 5.5
    endloop
  endfacet
  facet normal 0 0 1
    outer loop
      vertex 2.24098 3.45106 5.5
      vertex 2.24098 1.54894 5.5
      vertex 2.85902 1.54894 5.5
    endloop
  endfacet
  facet normal -0 0 1
    outer loop
      vertex 1.74098 3.08778 5.5
      vertex 2.24098 1.54894 5.5
      vertex 2.24098 3.45106 5.5
    endloop
  endfacet
  facet normal 0 0 1
    outer loop
      vertex 1.74098 3.08778 5.5
      vertex 1.74098 1.91221 5.5
      vertex 2.24098 1.54894 5.5
    endloop
  endfacet
  facet normal 0 -0 1
    outer loop
      vertex 1.74098 1.91221 5.5
      vertex 1.74098 3.08778 5.5
      vertex 1.55 2.5 5.5
    endloop
  endfacet
  facet normal 0.587786 -0.809017 0
    outer loop
      vertex 2.85902 1.54894 1
      vertex 3.35902 1.91221 5.5
      vertex 2.85902 1.54894 5.5
    endloop
  endfacet
  facet normal 0.587786 -0.809017 0
    outer loop
      vertex 3.35902 1.91221 5.5
      vertex 2.85902 1.54894 1
      vertex 3.35902 1.91221 1
    endloop
  endfacet
  facet normal -0.587786 -0.809017 0
    outer loop
      vertex 1.74098 1.91221 1
      vertex 2.24098 1.54894 5.5
      vertex 1.74098 1.91221 5.5
    endloop
  endfacet
  facet normal -0.587786 -0.809017 -0
    outer loop
      vertex 2.24098 1.54894 5.5
      vertex 1.74098 1.91221 1
      vertex 2.24098 1.54894 1
    endloop
  endfacet
  facet normal -0.587786 0.809017 0
    outer loop
      vertex 2.24098 3.45106 1
      vertex 1.74098 3.08778 5.5
      vertex 2.24098 3.45106 5.5
    endloop
  endfacet
  facet normal -0.587786 0.809017 0
    outer loop
      vertex 1.74098 3.08778 5.5
      vertex 2.24098 3.45106 1
      vertex 1.74098 3.08778 1
    endloop
  endfacet
  facet normal -0.951057 -0.309016 0
    outer loop
      vertex 1.74098 1.91221 1
      vertex 1.55 2.5 5.5
      vertex 1.55 2.5 1
    endloop
  endfacet
  facet normal -0.951057 -0.309016 0
    outer loop
      vertex 1.55 2.5 5.5
      vertex 1.74098 1.91221 1
      vertex 1.74098 1.91221 5.5
    endloop
  endfacet
  facet normal -0.951057 0.309017 0
    outer loop
      vertex 1.55 2.5 1
      vertex 1.74098 3.08778 5.5
      vertex 1.74098 3.08778 1
    endloop
  endfacet
  facet normal -0.951057 0.309017 0
    outer loop
      vertex 1.74098 3.08778 5.5
      vertex 1.55 2.5 1
      vertex 1.55 2.5 5.5
    endloop
  endfacet
  facet normal 0.951057 -0.309016 0
    outer loop
      vertex 3.35902 1.91221 5.5
      vertex 3.55 2.5 1
      vertex 3.55 2.5 5.5
    endloop
  endfacet
  facet normal 0.951057 -0.309016 0
    outer loop
      vertex 3.55 2.5 1
      vertex 3.35902 1.91221 5.5
      vertex 3.35902 1.91221 1
    endloop
  endfacet
  facet normal 0 -1 0
    outer loop
      vertex 2.24098 1.54894 1
      vertex 2.85902 1.54894 5.5
      vertex 2.24098 1.54894 5.5
    endloop
  endfacet
  facet normal 0 -1 -0
    outer loop
      vertex 2.85902 1.54894 5.5
      vertex 2.24098 1.54894 1
      vertex 2.85902 1.54894 1
    endloop
  endfacet
  facet normal 0.951056 0.309017 0
    outer loop
      vertex 3.55 20.5 5.5
      vertex 3.35902 21.0878 1
      vertex 3.35902 21.0878 5.5
    endloop
  endfacet
  facet normal 0.951056 0.309017 0
    outer loop
      vertex 3.35902 21.0878 1
      vertex 3.55 20.5 5.5
      vertex 3.55 20.5 1
    endloop
  endfacet
  facet normal 0 1 -0
    outer loop
      vertex 2.85902 21.4511 1
      vertex 2.24098 21.4511 5.5
      vertex 2.85902 21.4511 5.5
    endloop
  endfacet
  facet normal 0 1 0
    outer loop
      vertex 2.24098 21.4511 5.5
      vertex 2.85902 21.4511 1
      vertex 2.24098 21.4511 1
    endloop
  endfacet
  facet normal 0.587788 0.809015 -0
    outer loop
      vertex 3.35902 21.0878 1
      vertex 2.85902 21.4511 5.5
      vertex 3.35902 21.0878 5.5
    endloop
  endfacet
  facet normal 0.587788 0.809015 0
    outer loop
      vertex 2.85902 21.4511 5.5
      vertex 3.35902 21.0878 1
      vertex 2.85902 21.4511 1
    endloop
  endfacet
  facet normal 0.587786 -0.809017 0
    outer loop
      vertex 2.85902 19.5489 1
      vertex 3.35902 19.9122 5.5
      vertex 2.85902 19.5489 5.5
    endloop
  endfacet
  facet normal 0.587786 -0.809017 0
    outer loop
      vertex 3.35902 19.9122 5.5
      vertex 2.85902 19.5489 1
      vertex 3.35902 19.9122 1
    endloop
  endfacet
  facet normal -0.587786 -0.809017 0
    outer loop
      vertex 1.74098 19.9122 1
      vertex 2.24098 19.5489 5.5
      vertex 1.74098 19.9122 5.5
    endloop
  endfacet
  facet normal -0.587786 -0.809017 -0
    outer loop
      vertex 2.24098 19.5489 5.5
      vertex 1.74098 19.9122 1
      vertex 2.24098 19.5489 1
    endloop
  endfacet
  facet normal -0.951056 0.309017 0
    outer loop
      vertex 1.55 20.5 1
      vertex 1.74098 21.0878 5.5
      vertex 1.74098 21.0878 1
    endloop
  endfacet
  facet normal -0.951056 0.309017 0
    outer loop
      vertex 1.74098 21.0878 5.5
      vertex 1.55 20.5 1
      vertex 1.55 20.5 5.5
    endloop
  endfacet
  facet normal -0.951057 -0.309016 0
    outer loop
      vertex 1.74098 19.9122 1
      vertex 1.55 20.5 5.5
      vertex 1.55 20.5 1
    endloop
  endfacet
  facet normal -0.951057 -0.309016 0
    outer loop
      vertex 1.55 20.5 5.5
      vertex 1.74098 19.9122 1
      vertex 1.74098 19.9122 5.5
    endloop
  endfacet
  facet normal -0.587788 0.809015 0
    outer loop
      vertex 2.24098 21.4511 1
      vertex 1.74098 21.0878 5.5
      vertex 2.24098 21.4511 5.5
    endloop
  endfacet
  facet normal -0.587788 0.809015 0
    outer loop
      vertex 1.74098 21.0878 5.5
      vertex 2.24098 21.4511 1
      vertex 1.74098 21.0878 1
    endloop
  endfacet
  facet normal 0.951057 -0.309016 0
    outer loop
      vertex 3.35902 19.9122 5.5
      vertex 3.55 20.5 1
      vertex 3.55 20.5 5.5
    endloop
  endfacet
  facet normal 0.951057 -0.309016 0
    outer loop
      vertex 3.55 20.5 1
      vertex 3.35902 19.9122 5.5
      vertex 3.35902 19.9122 1
    endloop
  endfacet
  facet normal 0 -1 0
    outer loop
      vertex 2.24098 19.5489 1
      vertex 2.85902 19.5489 5.5
      vertex 2.24098 19.5489 5.5
    endloop
  endfacet
  facet normal 0 -1 -0
    outer loop
      vertex 2.85902 19.5489 5.5
      vertex 2.24098 19.5489 1
      vertex 2.85902 19.5489 1
    endloop
  endfacet
  facet normal 0 0 1
    outer loop
      vertex 3.35902 21.0878 5.5
      vertex 3.35902 19.9122 5.5
      vertex 3.55 20.5 5.5
    endloop
  endfacet
  facet normal 0 0 1
    outer loop
      vertex 2.85902 21.4511 5.5
      vertex 3.35902 19.9122 5.5
      vertex 3.35902 21.0878 5.5
    endloop
  endfacet
  facet normal 0 0 1
    outer loop
      vertex 2.85902 21.4511 5.5
      vertex 2.85902 19.5489 5.5
      vertex 3.35902 19.9122 5.5
    endloop
  endfacet
  facet normal -0 0 1
    outer loop
      vertex 2.24098 21.4511 5.5
      vertex 2.85902 19.5489 5.5
      vertex 2.85902 21.4511 5.5
    endloop
  endfacet
  facet normal 0 0 1
    outer loop
      vertex 2.24098 21.4511 5.5
      vertex 2.24098 19.5489 5.5
      vertex 2.85902 19.5489 5.5
    endloop
  endfacet
  facet normal -0 0 1
    outer loop
      vertex 1.74098 21.0878 5.5
      vertex 2.24098 19.5489 5.5
      vertex 2.24098 21.4511 5.5
    endloop
  endfacet
  facet normal 0 0 1
    outer loop
      vertex 1.74098 21.0878 5.5
      vertex 1.74098 19.9122 5.5
      vertex 2.24098 19.5489 5.5
    endloop
  endfacet
  facet normal 0 -0 1
    outer loop
      vertex 1.74098 19.9122 5.5
      vertex 1.74098 21.0878 5.5
      vertex 1.55 20.5 5.5
    endloop
  endfacet
  facet normal 0.951057 0.309017 0
    outer loop
      vertex 49.55 2.5 5.5
      vertex 49.359 3.08778 1
      vertex 49.359 3.08778 5.5
    endloop
  endfacet
  facet normal 0.951057 0.309017 0
    outer loop
      vertex 49.359 3.08778 1
      vertex 49.55 2.5 5.5
      vertex 49.55 2.5 1
    endloop
  endfacet
  facet normal 0 1 -0
    outer loop
      vertex 48.859 3.45106 1
      vertex 48.241 3.45106 5.5
      vertex 48.859 3.45106 5.5
    endloop
  endfacet
  facet normal 0 1 0
    outer loop
      vertex 48.241 3.45106 5.5
      vertex 48.859 3.45106 1
      vertex 48.241 3.45106 1
    endloop
  endfacet
  facet normal 0.587786 0.809017 -0
    outer loop
      vertex 49.359 3.08778 1
      vertex 48.859 3.45106 5.5
      vertex 49.359 3.08778 5.5
    endloop
  endfacet
  facet normal 0.587786 0.809017 0
    outer loop
      vertex 48.859 3.45106 5.5
      vertex 49.359 3.08778 1
      vertex 48.859 3.45106 1
    endloop
  endfacet
  facet normal 0 0 1
    outer loop
      vertex 49.359 3.08778 5.5
      vertex 49.359 1.91221 5.5
      vertex 49.55 2.5 5.5
    endloop
  endfacet
  facet normal 0 0 1
    outer loop
      vertex 48.859 3.45106 5.5
      vertex 49.359 1.91221 5.5
      vertex 49.359 3.08778 5.5
    endloop
  endfacet
  facet normal 0 0 1
    outer loop
      vertex 48.859 3.45106 5.5
      vertex 48.859 1.54894 5.5
      vertex 49.359 1.91221 5.5
    endloop
  endfacet
  facet normal -0 0 1
    outer loop
      vertex 48.241 3.45106 5.5
      vertex 48.859 1.54894 5.5
      vertex 48.859 3.45106 5.5
    endloop
  endfacet
  facet normal 0 0 1
    outer loop
      vertex 48.241 3.45106 5.5
      vertex 48.241 1.54894 5.5
      vertex 48.859 1.54894 5.5
    endloop
  endfacet
  facet normal -0 0 1
    outer loop
      vertex 47.741 3.08778 5.5
      vertex 48.241 1.54894 5.5
      vertex 48.241 3.45106 5.5
    endloop
  endfacet
  facet normal 0 0 1
    outer loop
      vertex 47.741 3.08778 5.5
      vertex 47.741 1.91221 5.5
      vertex 48.241 1.54894 5.5
    endloop
  endfacet
  facet normal 0 -0 1
    outer loop
      vertex 47.741 1.91221 5.5
      vertex 47.741 3.08778 5.5
      vertex 47.55 2.5 5.5
    endloop
  endfacet
  facet normal 0.587786 -0.809017 0
    outer loop
      vertex 48.859 1.54894 1
      vertex 49.359 1.91221 5.5
      vertex 48.859 1.54894 5.5
    endloop
  endfacet
  facet normal 0.587786 -0.809017 0
    outer loop
      vertex 49.359 1.91221 5.5
      vertex 48.859 1.54894 1
      vertex 49.359 1.91221 1
    endloop
  endfacet
  facet normal -0.587786 -0.809017 0
    outer loop
      vertex 47.741 1.91221 1
      vertex 48.241 1.54894 5.5
      vertex 47.741 1.91221 5.5
    endloop
  endfacet
  facet normal -0.587786 -0.809017 -0
    outer loop
      vertex 48.241 1.54894 5.5
      vertex 47.741 1.91221 1
      vertex 48.241 1.54894 1
    endloop
  endfacet
  facet normal -0.951057 0.309017 0
    outer loop
      vertex 47.55 2.5 1
      vertex 47.741 3.08778 5.5
      vertex 47.741 3.08778 1
    endloop
  endfacet
  facet normal -0.951057 0.309017 0
    outer loop
      vertex 47.741 3.08778 5.5
      vertex 47.55 2.5 1
      vertex 47.55 2.5 5.5
    endloop
  endfacet
  facet normal -0.951057 -0.309016 0
    outer loop
      vertex 47.741 1.91221 1
      vertex 47.55 2.5 5.5
      vertex 47.55 2.5 1
    endloop
  endfacet
  facet normal -0.951057 -0.309016 0
    outer loop
      vertex 47.55 2.5 5.5
      vertex 47.741 1.91221 1
      vertex 47.741 1.91221 5.5
    endloop
  endfacet
  facet normal -0.587786 0.809017 0
    outer loop
      vertex 48.241 3.45106 1
      vertex 47.741 3.08778 5.5
      vertex 48.241 3.45106 5.5
    endloop
  endfacet
  facet normal -0.587786 0.809017 0
    outer loop
      vertex 47.741 3.08778 5.5
      vertex 48.241 3.45106 1
      vertex 47.741 3.08778 1
    endloop
  endfacet
  facet normal 0.951057 -0.309016 0
    outer loop
      vertex 49.359 1.91221 5.5
      vertex 49.55 2.5 1
      vertex 49.55 2.5 5.5
    endloop
  endfacet
  facet normal 0.951057 -0.309016 0
    outer loop
      vertex 49.55 2.5 1
      vertex 49.359 1.91221 5.5
      vertex 49.359 1.91221 1
    endloop
  endfacet
  facet normal 0 -1 0
    outer loop
      vertex 48.241 1.54894 1
      vertex 48.859 1.54894 5.5
      vertex 48.241 1.54894 5.5
    endloop
  endfacet
  facet normal 0 -1 -0
    outer loop
      vertex 48.859 1.54894 5.5
      vertex 48.241 1.54894 1
      vertex 48.859 1.54894 1
    endloop
  endfacet
  facet normal 0.951056 0.309017 0
    outer loop
      vertex 49.55 20.5 5.5
      vertex 49.359 21.0878 1
      vertex 49.359 21.0878 5.5
    endloop
  endfacet
  facet normal 0.951056 0.309017 0
    outer loop
      vertex 49.359 21.0878 1
      vertex 49.55 20.5 5.5
      vertex 49.55 20.5 1
    endloop
  endfacet
  facet normal 0 1 -0
    outer loop
      vertex 48.859 21.4511 1
      vertex 48.241 21.4511 5.5
      vertex 48.859 21.4511 5.5
    endloop
  endfacet
  facet normal 0 1 0
    outer loop
      vertex 48.241 21.4511 5.5
      vertex 48.859 21.4511 1
      vertex 48.241 21.4511 1
    endloop
  endfacet
  facet normal 0.587788 0.809015 -0
    outer loop
      vertex 49.359 21.0878 1
      vertex 48.859 21.4511 5.5
      vertex 49.359 21.0878 5.5
    endloop
  endfacet
  facet normal 0.587788 0.809015 0
    outer loop
      vertex 48.859 21.4511 5.5
      vertex 49.359 21.0878 1
      vertex 48.859 21.4511 1
    endloop
  endfacet
  facet normal 0 0 1
    outer loop
      vertex 49.359 21.0878 5.5
      vertex 49.359 19.9122 5.5
      vertex 49.55 20.5 5.5
    endloop
  endfacet
  facet normal 0 0 1
    outer loop
      vertex 48.859 21.4511 5.5
      vertex 49.359 19.9122 5.5
      vertex 49.359 21.0878 5.5
    endloop
  endfacet
  facet normal 0 0 1
    outer loop
      vertex 48.859 21.4511 5.5
      vertex 48.859 19.5489 5.5
      vertex 49.359 19.9122 5.5
    endloop
  endfacet
  facet normal -0 0 1
    outer loop
      vertex 48.241 21.4511 5.5
      vertex 48.859 19.5489 5.5
      vertex 48.859 21.4511 5.5
    endloop
  endfacet
  facet normal 0 0 1
    outer loop
      vertex 48.241 21.4511 5.5
      vertex 48.241 19.5489 5.5
      vertex 48.859 19.5489 5.5
    endloop
  endfacet
  facet normal -0 0 1
    outer loop
      vertex 47.741 21.0878 5.5
      vertex 48.241 19.5489 5.5
      vertex 48.241 21.4511 5.5
    endloop
  endfacet
  facet normal 0 0 1
    outer loop
      vertex 47.741 21.0878 5.5
      vertex 47.741 19.9122 5.5
      vertex 48.241 19.5489 5.5
    endloop
  endfacet
  facet normal 0 -0 1
    outer loop
      vertex 47.741 19.9122 5.5
      vertex 47.741 21.0878 5.5
      vertex 47.55 20.5 5.5
    endloop
  endfacet
  facet normal 0.587786 -0.809017 0
    outer loop
      vertex 48.859 19.5489 1
      vertex 49.359 19.9122 5.5
      vertex 48.859 19.5489 5.5
    endloop
  endfacet
  facet normal 0.587786 -0.809017 0
    outer loop
      vertex 49.359 19.9122 5.5
      vertex 48.859 19.5489 1
      vertex 49.359 19.9122 1
    endloop
  endfacet
  facet normal -0.587786 -0.809017 0
    outer loop
      vertex 47.741 19.9122 1
      vertex 48.241 19.5489 5.5
      vertex 47.741 19.9122 5.5
    endloop
  endfacet
  facet normal -0.587786 -0.809017 -0
    outer loop
      vertex 48.241 19.5489 5.5
      vertex 47.741 19.9122 1
      vertex 48.241 19.5489 1
    endloop
  endfacet
  facet normal -0.951056 0.309017 0
    outer loop
      vertex 47.55 20.5 1
      vertex 47.741 21.0878 5.5
      vertex 47.741 21.0878 1
    endloop
  endfacet
  facet normal -0.951056 0.309017 0
    outer loop
      vertex 47.741 21.0878 5.5
      vertex 47.55 20.5 1
      vertex 47.55 20.5 5.5
    endloop
  endfacet
  facet normal -0.951057 -0.309016 0
    outer loop
      vertex 47.741 19.9122 1
      vertex 47.55 20.5 5.5
      vertex 47.55 20.5 1
    endloop
  endfacet
  facet normal -0.951057 -0.309016 0
    outer loop
      vertex 47.55 20.5 5.5
      vertex 47.741 19.9122 1
      vertex 47.741 19.9122 5.5
    endloop
  endfacet
  facet normal -0.587788 0.809015 0
    outer loop
      vertex 48.241 21.4511 1
      vertex 47.741 21.0878 5.5
      vertex 48.241 21.4511 5.5
    endloop
  endfacet
  facet normal -0.587788 0.809015 0
    outer loop
      vertex 47.741 21.0878 5.5
      vertex 48.241 21.4511 1
      vertex 47.741 21.0878 1
    endloop
  endfacet
  facet normal 0.951057 -0.309016 0
    outer loop
      vertex 49.359 19.9122 5.5
      vertex 49.55 20.5 1
      vertex 49.55 20.5 5.5
    endloop
  endfacet
  facet normal 0.951057 -0.309016 0
    outer loop
      vertex 49.55 20.5 1
      vertex 49.359 19.9122 5.5
      vertex 49.359 19.9122 1
    endloop
  endfacet
  facet normal 0 -1 0
    outer loop
      vertex 48.241 19.5489 1
      vertex 48.859 19.5489 5.5
      vertex 48.241 19.5489 5.5
    endloop
  endfacet
  facet normal 0 -1 -0
    outer loop
      vertex 48.859 19.5489 5.5
      vertex 48.241 19.5489 1
      vertex 48.859 19.5489 1
    endloop
  endfacet
endsolid OpenSCAD_Model
