solid OpenSCAD_Model
  facet normal 0.994522 0.104529 0
    outer loop
      vertex 11 0 2.5
      vertex 10.7596 2.28703 -2
      vertex 10.7596 2.28703 2.5
    endloop
  endfacet
  facet normal 0.994522 0.104529 0
    outer loop
      vertex 10.7596 2.28703 -2
      vertex 11 0 2.5
      vertex 11 0 -2
    endloop
  endfacet
  facet normal -0.994522 0.104529 0
    outer loop
      vertex -11 0 -2
      vertex -10.7596 2.28703 2.5
      vertex -10.7596 2.28703 -2
    endloop
  endfacet
  facet normal -0.994522 0.104529 0
    outer loop
      vertex -10.7596 2.28703 2.5
      vertex -11 0 -2
      vertex -11 0 2.5
    endloop
  endfacet
  facet normal 0 1 -0
    outer loop
      vertex 1.14981 10.9397 -2
      vertex -1.14981 10.9397 2.5
      vertex 1.14981 10.9397 2.5
    endloop
  endfacet
  facet normal 0 1 0
    outer loop
      vertex -1.14981 10.9397 2.5
      vertex 1.14981 10.9397 -2
      vertex -1.14981 10.9397 -2
    endloop
  endfacet
  facet normal 0 -1 0
    outer loop
      vertex -1.14981 -10.9397 -2
      vertex 1.14981 -10.9397 2.5
      vertex -1.14981 -10.9397 2.5
    endloop
  endfacet
  facet normal 0 -1 -0
    outer loop
      vertex 1.14981 -10.9397 2.5
      vertex -1.14981 -10.9397 -2
      vertex 1.14981 -10.9397 -2
    endloop
  endfacet
  facet normal 0.743145 0.66913 0
    outer loop
      vertex 8.89919 6.46564 2.5
      vertex 7.36044 8.17459 -2
      vertex 7.36044 8.17459 2.5
    endloop
  endfacet
  facet normal 0.743145 0.66913 0
    outer loop
      vertex 7.36044 8.17459 -2
      vertex 8.89919 6.46564 2.5
      vertex 8.89919 6.46564 -2
    endloop
  endfacet
  facet normal 0.951057 0.309017 0
    outer loop
      vertex 10.7596 2.28703 2.5
      vertex 10.049 4.4741 -2
      vertex 10.049 4.4741 2.5
    endloop
  endfacet
  facet normal 0.951057 0.309017 0
    outer loop
      vertex 10.049 4.4741 -2
      vertex 10.7596 2.28703 2.5
      vertex 10.7596 2.28703 -2
    endloop
  endfacet
  facet normal -0.587785 0.809017 0
    outer loop
      vertex -5.5 9.52628 -2
      vertex -7.36044 8.17459 2.5
      vertex -5.5 9.52628 2.5
    endloop
  endfacet
  facet normal -0.587785 0.809017 0
    outer loop
      vertex -7.36044 8.17459 2.5
      vertex -5.5 9.52628 -2
      vertex -7.36044 8.17459 -2
    endloop
  endfacet
  facet normal -0.207912 0.978148 0
    outer loop
      vertex -1.14981 10.9397 -2
      vertex -3.39919 10.4616 2.5
      vertex -1.14981 10.9397 2.5
    endloop
  endfacet
  facet normal -0.207912 0.978148 0
    outer loop
      vertex -3.39919 10.4616 2.5
      vertex -1.14981 10.9397 -2
      vertex -3.39919 10.4616 -2
    endloop
  endfacet
  facet normal 0.866025 -0.5 0
    outer loop
      vertex 8.89919 -6.46564 2.5
      vertex 10.049 -4.4741 -2
      vertex 10.049 -4.4741 2.5
    endloop
  endfacet
  facet normal 0.866025 -0.5 0
    outer loop
      vertex 10.049 -4.4741 -2
      vertex 8.89919 -6.46564 2.5
      vertex 8.89919 -6.46564 -2
    endloop
  endfacet
  facet normal 0.866025 0.5 0
    outer loop
      vertex 10.049 4.4741 2.5
      vertex 8.89919 6.46564 -2
      vertex 8.89919 6.46564 2.5
    endloop
  endfacet
  facet normal 0.866025 0.5 0
    outer loop
      vertex 8.89919 6.46564 -2
      vertex 10.049 4.4741 2.5
      vertex 10.049 4.4741 -2
    endloop
  endfacet
  facet normal 0.406737 0.913545 -0
    outer loop
      vertex 5.5 9.52628 -2
      vertex 3.39919 10.4616 2.5
      vertex 5.5 9.52628 2.5
    endloop
  endfacet
  facet normal 0.406737 0.913545 0
    outer loop
      vertex 3.39919 10.4616 2.5
      vertex 5.5 9.52628 -2
      vertex 3.39919 10.4616 -2
    endloop
  endfacet
  facet normal 0.207912 0.978148 -0
    outer loop
      vertex 3.39919 10.4616 -2
      vertex 1.14981 10.9397 2.5
      vertex 3.39919 10.4616 2.5
    endloop
  endfacet
  facet normal 0.207912 0.978148 0
    outer loop
      vertex 1.14981 10.9397 2.5
      vertex 3.39919 10.4616 -2
      vertex 1.14981 10.9397 -2
    endloop
  endfacet
  facet normal 0.587785 0.809017 -0
    outer loop
      vertex 7.36044 8.17459 -2
      vertex 5.5 9.52628 2.5
      vertex 7.36044 8.17459 2.5
    endloop
  endfacet
  facet normal 0.587785 0.809017 0
    outer loop
      vertex 5.5 9.52628 2.5
      vertex 7.36044 8.17459 -2
      vertex 5.5 9.52628 -2
    endloop
  endfacet
  facet normal -0.866025 0.5 0
    outer loop
      vertex -10.049 4.4741 -2
      vertex -8.89919 6.46564 2.5
      vertex -8.89919 6.46564 -2
    endloop
  endfacet
  facet normal -0.866025 0.5 0
    outer loop
      vertex -8.89919 6.46564 2.5
      vertex -10.049 4.4741 -2
      vertex -10.049 4.4741 2.5
    endloop
  endfacet
  facet normal -0.743145 0.66913 0
    outer loop
      vertex -8.89919 6.46564 -2
      vertex -7.36044 8.17459 2.5
      vertex -7.36044 8.17459 -2
    endloop
  endfacet
  facet normal -0.743145 0.66913 0
    outer loop
      vertex -7.36044 8.17459 2.5
      vertex -8.89919 6.46564 -2
      vertex -8.89919 6.46564 2.5
    endloop
  endfacet
  facet normal -0.951057 0.309017 0
    outer loop
      vertex -10.7596 2.28703 -2
      vertex -10.049 4.4741 2.5
      vertex -10.049 4.4741 -2
    endloop
  endfacet
  facet normal -0.951057 0.309017 0
    outer loop
      vertex -10.049 4.4741 2.5
      vertex -10.7596 2.28703 -2
      vertex -10.7596 2.28703 2.5
    endloop
  endfacet
  facet normal 0 0 1
    outer loop
      vertex 10 0 2.5
      vertex 11 0 2.5
      vertex 10.7596 2.28703 2.5
    endloop
  endfacet
  facet normal 0 0 1
    outer loop
      vertex 9.78148 2.07912 2.5
      vertex 10.7596 2.28703 2.5
      vertex 10.049 4.4741 2.5
    endloop
  endfacet
  facet normal 0 0 1
    outer loop
      vertex 11 0 2.5
      vertex 10 0 2.5
      vertex 10.7596 -2.28703 2.5
    endloop
  endfacet
  facet normal -0 0 1
    outer loop
      vertex 9.78148 -2.07912 2.5
      vertex 10.7596 -2.28703 2.5
      vertex 10 0 2.5
    endloop
  endfacet
  facet normal 0 0 1
    outer loop
      vertex 10.7596 2.28703 2.5
      vertex 9.78148 2.07912 2.5
      vertex 10 0 2.5
    endloop
  endfacet
  facet normal 0 0 1
    outer loop
      vertex 10.049 4.4741 2.5
      vertex 9.13545 4.06737 2.5
      vertex 9.78148 2.07912 2.5
    endloop
  endfacet
  facet normal 0 0 1
    outer loop
      vertex 8.89919 6.46564 2.5
      vertex 9.13545 4.06737 2.5
      vertex 10.049 4.4741 2.5
    endloop
  endfacet
  facet normal 0 0 1
    outer loop
      vertex 8.89919 6.46564 2.5
      vertex 8.09017 5.87785 2.5
      vertex 9.13545 4.06737 2.5
    endloop
  endfacet
  facet normal 0 0 1
    outer loop
      vertex 7.36044 8.17459 2.5
      vertex 8.09017 5.87785 2.5
      vertex 8.89919 6.46564 2.5
    endloop
  endfacet
  facet normal 0 0 1
    outer loop
      vertex 7.36044 8.17459 2.5
      vertex 6.69131 7.43145 2.5
      vertex 8.09017 5.87785 2.5
    endloop
  endfacet
  facet normal 0 0 1
    outer loop
      vertex 5.5 9.52628 2.5
      vertex 6.69131 7.43145 2.5
      vertex 7.36044 8.17459 2.5
    endloop
  endfacet
  facet normal 0 0 1
    outer loop
      vertex 5.5 9.52628 2.5
      vertex 5 8.66025 2.5
      vertex 6.69131 7.43145 2.5
    endloop
  endfacet
  facet normal 0 0 1
    outer loop
      vertex 3.39919 10.4616 2.5
      vertex 5 8.66025 2.5
      vertex 5.5 9.52628 2.5
    endloop
  endfacet
  facet normal 0 0 1
    outer loop
      vertex 3.39919 10.4616 2.5
      vertex 3.09017 9.51056 2.5
      vertex 5 8.66025 2.5
    endloop
  endfacet
  facet normal 0 0 1
    outer loop
      vertex 1.14981 10.9397 2.5
      vertex 3.09017 9.51056 2.5
      vertex 3.39919 10.4616 2.5
    endloop
  endfacet
  facet normal 0 0 1
    outer loop
      vertex 1.14981 10.9397 2.5
      vertex 1.04528 9.94522 2.5
      vertex 3.09017 9.51056 2.5
    endloop
  endfacet
  facet normal 0 0 1
    outer loop
      vertex 1.14981 10.9397 2.5
      vertex -1.04528 9.94522 2.5
      vertex 1.04528 9.94522 2.5
    endloop
  endfacet
  facet normal -0 0 1
    outer loop
      vertex -1.14981 10.9397 2.5
      vertex -1.04528 9.94522 2.5
      vertex 1.14981 10.9397 2.5
    endloop
  endfacet
  facet normal 0 0 1
    outer loop
      vertex -1.14981 10.9397 2.5
      vertex -3.09017 9.51056 2.5
      vertex -1.04528 9.94522 2.5
    endloop
  endfacet
  facet normal -0 0 1
    outer loop
      vertex -3.39919 10.4616 2.5
      vertex -3.09017 9.51056 2.5
      vertex -1.14981 10.9397 2.5
    endloop
  endfacet
  facet normal 0 0 1
    outer loop
      vertex -3.39919 10.4616 2.5
      vertex -5 8.66025 2.5
      vertex -3.09017 9.51056 2.5
    endloop
  endfacet
  facet normal -0 0 1
    outer loop
      vertex -5.5 9.52628 2.5
      vertex -5 8.66025 2.5
      vertex -3.39919 10.4616 2.5
    endloop
  endfacet
  facet normal 0 0 1
    outer loop
      vertex -5.5 9.52628 2.5
      vertex -6.69131 7.43145 2.5
      vertex -5 8.66025 2.5
    endloop
  endfacet
  facet normal -0 0 1
    outer loop
      vertex -7.36044 8.17459 2.5
      vertex -6.69131 7.43145 2.5
      vertex -5.5 9.52628 2.5
    endloop
  endfacet
  facet normal 0 0 1
    outer loop
      vertex -7.36044 8.17459 2.5
      vertex -8.09017 5.87785 2.5
      vertex -6.69131 7.43145 2.5
    endloop
  endfacet
  facet normal -0 0 1
    outer loop
      vertex -8.89919 6.46564 2.5
      vertex -8.09017 5.87785 2.5
      vertex -7.36044 8.17459 2.5
    endloop
  endfacet
  facet normal 0 0 1
    outer loop
      vertex -8.89919 6.46564 2.5
      vertex -9.13545 4.06737 2.5
      vertex -8.09017 5.87785 2.5
    endloop
  endfacet
  facet normal -0 0 1
    outer loop
      vertex -10.049 4.4741 2.5
      vertex -9.13545 4.06737 2.5
      vertex -8.89919 6.46564 2.5
    endloop
  endfacet
  facet normal -0 0 1
    outer loop
      vertex -10.7596 2.28703 2.5
      vertex -9.78148 2.07912 2.5
      vertex -10.049 4.4741 2.5
    endloop
  endfacet
  facet normal 0 0 1
    outer loop
      vertex -9.13545 4.06737 2.5
      vertex -10.049 4.4741 2.5
      vertex -9.78148 2.07912 2.5
    endloop
  endfacet
  facet normal 0 0 1
    outer loop
      vertex 10.7596 -2.28703 2.5
      vertex 9.78148 -2.07912 2.5
      vertex 10.049 -4.4741 2.5
    endloop
  endfacet
  facet normal -0 0 1
    outer loop
      vertex 9.13545 -4.06737 2.5
      vertex 10.049 -4.4741 2.5
      vertex 9.78148 -2.07912 2.5
    endloop
  endfacet
  facet normal 0 0 1
    outer loop
      vertex 9.13545 -4.06737 2.5
      vertex 8.89919 -6.46564 2.5
      vertex 10.049 -4.4741 2.5
    endloop
  endfacet
  facet normal -0 0 1
    outer loop
      vertex 8.09017 -5.87785 2.5
      vertex 8.89919 -6.46564 2.5
      vertex 9.13545 -4.06737 2.5
    endloop
  endfacet
  facet normal 0 0 1
    outer loop
      vertex 8.09017 -5.87785 2.5
      vertex 7.36044 -8.17459 2.5
      vertex 8.89919 -6.46564 2.5
    endloop
  endfacet
  facet normal -0 0 1
    outer loop
      vertex 6.69131 -7.43145 2.5
      vertex 7.36044 -8.17459 2.5
      vertex 8.09017 -5.87785 2.5
    endloop
  endfacet
  facet normal 0 0 1
    outer loop
      vertex 6.69131 -7.43145 2.5
      vertex 5.5 -9.52628 2.5
      vertex 7.36044 -8.17459 2.5
    endloop
  endfacet
  facet normal -0 0 1
    outer loop
      vertex 5 -8.66025 2.5
      vertex 5.5 -9.52628 2.5
      vertex 6.69131 -7.43145 2.5
    endloop
  endfacet
  facet normal 0 0 1
    outer loop
      vertex 5 -8.66025 2.5
      vertex 3.39919 -10.4616 2.5
      vertex 5.5 -9.52628 2.5
    endloop
  endfacet
  facet normal -0 0 1
    outer loop
      vertex 3.09017 -9.51056 2.5
      vertex 3.39919 -10.4616 2.5
      vertex 5 -8.66025 2.5
    endloop
  endfacet
  facet normal 0 0 1
    outer loop
      vertex 3.09017 -9.51056 2.5
      vertex 1.14981 -10.9397 2.5
      vertex 3.39919 -10.4616 2.5
    endloop
  endfacet
  facet normal -0 0 1
    outer loop
      vertex 1.04528 -9.94522 2.5
      vertex 1.14981 -10.9397 2.5
      vertex 3.09017 -9.51056 2.5
    endloop
  endfacet
  facet normal -0 0 1
    outer loop
      vertex -1.04528 -9.94522 2.5
      vertex 1.14981 -10.9397 2.5
      vertex 1.04528 -9.94522 2.5
    endloop
  endfacet
  facet normal 0 0 1
    outer loop
      vertex -1.04528 -9.94522 2.5
      vertex -1.14981 -10.9397 2.5
      vertex 1.14981 -10.9397 2.5
    endloop
  endfacet
  facet normal 0 0 1
    outer loop
      vertex -3.09017 -9.51056 2.5
      vertex -1.14981 -10.9397 2.5
      vertex -1.04528 -9.94522 2.5
    endloop
  endfacet
  facet normal 0 0 1
    outer loop
      vertex -3.09017 -9.51056 2.5
      vertex -3.39919 -10.4616 2.5
      vertex -1.14981 -10.9397 2.5
    endloop
  endfacet
  facet normal 0 0 1
    outer loop
      vertex -5 -8.66025 2.5
      vertex -3.39919 -10.4616 2.5
      vertex -3.09017 -9.51056 2.5
    endloop
  endfacet
  facet normal 0 0 1
    outer loop
      vertex -5 -8.66025 2.5
      vertex -5.5 -9.52628 2.5
      vertex -3.39919 -10.4616 2.5
    endloop
  endfacet
  facet normal 0 0 1
    outer loop
      vertex -6.69131 -7.43145 2.5
      vertex -5.5 -9.52628 2.5
      vertex -5 -8.66025 2.5
    endloop
  endfacet
  facet normal 0 0 1
    outer loop
      vertex -6.69131 -7.43145 2.5
      vertex -7.36044 -8.17459 2.5
      vertex -5.5 -9.52628 2.5
    endloop
  endfacet
  facet normal 0 0 1
    outer loop
      vertex -8.09017 -5.87785 2.5
      vertex -7.36044 -8.17459 2.5
      vertex -6.69131 -7.43145 2.5
    endloop
  endfacet
  facet normal 0 0 1
    outer loop
      vertex -8.09017 -5.87785 2.5
      vertex -8.89919 -6.46564 2.5
      vertex -7.36044 -8.17459 2.5
    endloop
  endfacet
  facet normal 0 0 1
    outer loop
      vertex -9.13545 -4.06737 2.5
      vertex -8.89919 -6.46564 2.5
      vertex -8.09017 -5.87785 2.5
    endloop
  endfacet
  facet normal 0 0 1
    outer loop
      vertex -10.049 -4.4741 2.5
      vertex -9.13545 -4.06737 2.5
      vertex -9.78148 -2.07912 2.5
    endloop
  endfacet
  facet normal 0 0 1
    outer loop
      vertex -9.13545 -4.06737 2.5
      vertex -10.049 -4.4741 2.5
      vertex -8.89919 -6.46564 2.5
    endloop
  endfacet
  facet normal 0 0 1
    outer loop
      vertex -10.7596 -2.28703 2.5
      vertex -9.78148 -2.07912 2.5
      vertex -10 0 2.5
    endloop
  endfacet
  facet normal 0 0 1
    outer loop
      vertex -9.78148 2.07912 2.5
      vertex -10.7596 2.28703 2.5
      vertex -10 0 2.5
    endloop
  endfacet
  facet normal 0 0 1
    outer loop
      vertex -11 0 2.5
      vertex -10 0 2.5
      vertex -10.7596 2.28703 2.5
    endloop
  endfacet
  facet normal 0 0 1
    outer loop
      vertex -9.78148 -2.07912 2.5
      vertex -10.7596 -2.28703 2.5
      vertex -10.049 -4.4741 2.5
    endloop
  endfacet
  facet normal 0 0 1
    outer loop
      vertex -10 0 2.5
      vertex -11 0 2.5
      vertex -10.7596 -2.28703 2.5
    endloop
  endfacet
  facet normal -0.406737 0.913545 0
    outer loop
      vertex -3.39919 10.4616 -2
      vertex -5.5 9.52628 2.5
      vertex -3.39919 10.4616 2.5
    endloop
  endfacet
  facet normal -0.406737 0.913545 0
    outer loop
      vertex -5.5 9.52628 2.5
      vertex -3.39919 10.4616 -2
      vertex -5.5 9.52628 -2
    endloop
  endfacet
  facet normal 0.207912 -0.978148 0
    outer loop
      vertex 1.14981 -10.9397 -2
      vertex 3.39919 -10.4616 2.5
      vertex 1.14981 -10.9397 2.5
    endloop
  endfacet
  facet normal 0.207912 -0.978148 0
    outer loop
      vertex 3.39919 -10.4616 2.5
      vertex 1.14981 -10.9397 -2
      vertex 3.39919 -10.4616 -2
    endloop
  endfacet
  facet normal 0.587785 -0.809017 0
    outer loop
      vertex 5.5 -9.52628 -2
      vertex 7.36044 -8.17459 2.5
      vertex 5.5 -9.52628 2.5
    endloop
  endfacet
  facet normal 0.587785 -0.809017 0
    outer loop
      vertex 7.36044 -8.17459 2.5
      vertex 5.5 -9.52628 -2
      vertex 7.36044 -8.17459 -2
    endloop
  endfacet
  facet normal 0.743145 -0.66913 0
    outer loop
      vertex 7.36044 -8.17459 2.5
      vertex 8.89919 -6.46564 -2
      vertex 8.89919 -6.46564 2.5
    endloop
  endfacet
  facet normal 0.743145 -0.66913 0
    outer loop
      vertex 8.89919 -6.46564 -2
      vertex 7.36044 -8.17459 2.5
      vertex 7.36044 -8.17459 -2
    endloop
  endfacet
  facet normal 0.951057 -0.309017 0
    outer loop
      vertex 10.049 -4.4741 2.5
      vertex 10.7596 -2.28703 -2
      vertex 10.7596 -2.28703 2.5
    endloop
  endfacet
  facet normal 0.951057 -0.309017 0
    outer loop
      vertex 10.7596 -2.28703 -2
      vertex 10.049 -4.4741 2.5
      vertex 10.049 -4.4741 -2
    endloop
  endfacet
  facet normal 0.994522 -0.104529 0
    outer loop
      vertex 10.7596 -2.28703 2.5
      vertex 11 0 -2
      vertex 11 0 2.5
    endloop
  endfacet
  facet normal 0.994522 -0.104529 0
    outer loop
      vertex 11 0 -2
      vertex 10.7596 -2.28703 2.5
      vertex 10.7596 -2.28703 -2
    endloop
  endfacet
  facet normal -0.866025 -0.5 0
    outer loop
      vertex -8.89919 -6.46564 -2
      vertex -10.049 -4.4741 2.5
      vertex -10.049 -4.4741 -2
    endloop
  endfacet
  facet normal -0.866025 -0.5 0
    outer loop
      vertex -10.049 -4.4741 2.5
      vertex -8.89919 -6.46564 -2
      vertex -8.89919 -6.46564 2.5
    endloop
  endfacet
  facet normal -0.994522 -0.104529 0
    outer loop
      vertex -10.7596 -2.28703 -2
      vertex -11 0 2.5
      vertex -11 0 -2
    endloop
  endfacet
  facet normal -0.994522 -0.104529 0
    outer loop
      vertex -11 0 2.5
      vertex -10.7596 -2.28703 -2
      vertex -10.7596 -2.28703 2.5
    endloop
  endfacet
  facet normal 0.406737 -0.913545 0
    outer loop
      vertex 3.39919 -10.4616 -2
      vertex 5.5 -9.52628 2.5
      vertex 3.39919 -10.4616 2.5
    endloop
  endfacet
  facet normal 0.406737 -0.913545 0
    outer loop
      vertex 5.5 -9.52628 2.5
      vertex 3.39919 -10.4616 -2
      vertex 5.5 -9.52628 -2
    endloop
  endfacet
  facet normal -0.207912 -0.978148 0
    outer loop
      vertex -3.39919 -10.4616 -2
      vertex -1.14981 -10.9397 2.5
      vertex -3.39919 -10.4616 2.5
    endloop
  endfacet
  facet normal -0.207912 -0.978148 -0
    outer loop
      vertex -1.14981 -10.9397 2.5
      vertex -3.39919 -10.4616 -2
      vertex -1.14981 -10.9397 -2
    endloop
  endfacet
  facet normal -0.587785 -0.809017 0
    outer loop
      vertex -7.36044 -8.17459 -2
      vertex -5.5 -9.52628 2.5
      vertex -7.36044 -8.17459 2.5
    endloop
  endfacet
  facet normal -0.587785 -0.809017 -0
    outer loop
      vertex -5.5 -9.52628 2.5
      vertex -7.36044 -8.17459 -2
      vertex -5.5 -9.52628 -2
    endloop
  endfacet
  facet normal -0.743145 -0.66913 0
    outer loop
      vertex -7.36044 -8.17459 -2
      vertex -8.89919 -6.46564 2.5
      vertex -8.89919 -6.46564 -2
    endloop
  endfacet
  facet normal -0.743145 -0.66913 0
    outer loop
      vertex -8.89919 -6.46564 2.5
      vertex -7.36044 -8.17459 -2
      vertex -7.36044 -8.17459 2.5
    endloop
  endfacet
  facet normal -0.951057 -0.309017 0
    outer loop
      vertex -10.049 -4.4741 -2
      vertex -10.7596 -2.28703 2.5
      vertex -10.7596 -2.28703 -2
    endloop
  endfacet
  facet normal -0.951057 -0.309017 0
    outer loop
      vertex -10.7596 -2.28703 2.5
      vertex -10.049 -4.4741 -2
      vertex -10.049 -4.4741 2.5
    endloop
  endfacet
  facet normal -0.406737 -0.913545 0
    outer loop
      vertex -5.5 -9.52628 -2
      vertex -3.39919 -10.4616 2.5
      vertex -5.5 -9.52628 2.5
    endloop
  endfacet
  facet normal -0.406737 -0.913545 -0
    outer loop
      vertex -3.39919 -10.4616 2.5
      vertex -5.5 -9.52628 -2
      vertex -3.39919 -10.4616 -2
    endloop
  endfacet
  facet normal -0.994522 -0.104529 0
    outer loop
      vertex 10 0 -2
      vertex 9.78148 2.07912 2.5
      vertex 9.78148 2.07912 -2
    endloop
  endfacet
  facet normal -0.994522 -0.104529 0
    outer loop
      vertex 9.78148 2.07912 2.5
      vertex 10 0 -2
      vertex 10 0 2.5
    endloop
  endfacet
  facet normal 0.994522 -0.104529 0
    outer loop
      vertex -10 0 2.5
      vertex -9.78148 2.07912 -2
      vertex -9.78148 2.07912 2.5
    endloop
  endfacet
  facet normal 0.994522 -0.104529 0
    outer loop
      vertex -9.78148 2.07912 -2
      vertex -10 0 2.5
      vertex -10 0 -2
    endloop
  endfacet
  facet normal 0 -1 0
    outer loop
      vertex -1.04528 9.94522 -2
      vertex 1.04528 9.94522 2.5
      vertex -1.04528 9.94522 2.5
    endloop
  endfacet
  facet normal 0 -1 -0
    outer loop
      vertex 1.04528 9.94522 2.5
      vertex -1.04528 9.94522 -2
      vertex 1.04528 9.94522 -2
    endloop
  endfacet
  facet normal 0 1 -0
    outer loop
      vertex 1.04528 -9.94522 -2
      vertex -1.04528 -9.94522 2.5
      vertex 1.04528 -9.94522 2.5
    endloop
  endfacet
  facet normal 0 1 0
    outer loop
      vertex -1.04528 -9.94522 2.5
      vertex 1.04528 -9.94522 -2
      vertex -1.04528 -9.94522 -2
    endloop
  endfacet
  facet normal -0.587785 -0.809017 0
    outer loop
      vertex 5 8.66025 -2
      vertex 6.69131 7.43145 2.5
      vertex 5 8.66025 2.5
    endloop
  endfacet
  facet normal -0.587785 -0.809017 -0
    outer loop
      vertex 6.69131 7.43145 2.5
      vertex 5 8.66025 -2
      vertex 6.69131 7.43145 -2
    endloop
  endfacet
  facet normal -0.406737 -0.913545 0
    outer loop
      vertex 3.09017 9.51056 -2
      vertex 5 8.66025 2.5
      vertex 3.09017 9.51056 2.5
    endloop
  endfacet
  facet normal -0.406737 -0.913545 -0
    outer loop
      vertex 5 8.66025 2.5
      vertex 3.09017 9.51056 -2
      vertex 5 8.66025 -2
    endloop
  endfacet
  facet normal 0.743145 -0.669131 0
    outer loop
      vertex -8.09017 5.87785 2.5
      vertex -6.69131 7.43145 -2
      vertex -6.69131 7.43145 2.5
    endloop
  endfacet
  facet normal 0.743145 -0.669131 0
    outer loop
      vertex -6.69131 7.43145 -2
      vertex -8.09017 5.87785 2.5
      vertex -8.09017 5.87785 -2
    endloop
  endfacet
  facet normal 0.866026 -0.5 0
    outer loop
      vertex -9.13545 4.06737 2.5
      vertex -8.09017 5.87785 -2
      vertex -8.09017 5.87785 2.5
    endloop
  endfacet
  facet normal 0.866026 -0.5 0
    outer loop
      vertex -8.09017 5.87785 -2
      vertex -9.13545 4.06737 2.5
      vertex -9.13545 4.06737 -2
    endloop
  endfacet
  facet normal 0.406737 -0.913545 0
    outer loop
      vertex -5 8.66025 -2
      vertex -3.09017 9.51056 2.5
      vertex -5 8.66025 2.5
    endloop
  endfacet
  facet normal 0.406737 -0.913545 0
    outer loop
      vertex -3.09017 9.51056 2.5
      vertex -5 8.66025 -2
      vertex -3.09017 9.51056 -2
    endloop
  endfacet
  facet normal -0.866026 -0.5 0
    outer loop
      vertex 9.13545 4.06737 -2
      vertex 8.09017 5.87785 2.5
      vertex 8.09017 5.87785 -2
    endloop
  endfacet
  facet normal -0.866026 -0.5 0
    outer loop
      vertex 8.09017 5.87785 2.5
      vertex 9.13545 4.06737 -2
      vertex 9.13545 4.06737 2.5
    endloop
  endfacet
  facet normal -0.951057 -0.309017 0
    outer loop
      vertex 9.78148 2.07912 -2
      vertex 9.13545 4.06737 2.5
      vertex 9.13545 4.06737 -2
    endloop
  endfacet
  facet normal -0.951057 -0.309017 0
    outer loop
      vertex 9.13545 4.06737 2.5
      vertex 9.78148 2.07912 -2
      vertex 9.78148 2.07912 2.5
    endloop
  endfacet
  facet normal -0.743145 -0.669131 0
    outer loop
      vertex 8.09017 5.87785 -2
      vertex 6.69131 7.43145 2.5
      vertex 6.69131 7.43145 -2
    endloop
  endfacet
  facet normal -0.743145 -0.669131 0
    outer loop
      vertex 6.69131 7.43145 2.5
      vertex 8.09017 5.87785 -2
      vertex 8.09017 5.87785 2.5
    endloop
  endfacet
  facet normal -0.207911 -0.978148 0
    outer loop
      vertex 1.04528 9.94522 -2
      vertex 3.09017 9.51056 2.5
      vertex 1.04528 9.94522 2.5
    endloop
  endfacet
  facet normal -0.207911 -0.978148 -0
    outer loop
      vertex 3.09017 9.51056 2.5
      vertex 1.04528 9.94522 -2
      vertex 3.09017 9.51056 -2
    endloop
  endfacet
  facet normal 0.951057 -0.309017 0
    outer loop
      vertex -9.78148 2.07912 2.5
      vertex -9.13545 4.06737 -2
      vertex -9.13545 4.06737 2.5
    endloop
  endfacet
  facet normal 0.951057 -0.309017 0
    outer loop
      vertex -9.13545 4.06737 -2
      vertex -9.78148 2.07912 2.5
      vertex -9.78148 2.07912 -2
    endloop
  endfacet
  facet normal 0.587785 -0.809017 0
    outer loop
      vertex -6.69131 7.43145 -2
      vertex -5 8.66025 2.5
      vertex -6.69131 7.43145 2.5
    endloop
  endfacet
  facet normal 0.587785 -0.809017 0
    outer loop
      vertex -5 8.66025 2.5
      vertex -6.69131 7.43145 -2
      vertex -5 8.66025 -2
    endloop
  endfacet
  facet normal 0.207911 -0.978148 0
    outer loop
      vertex -3.09017 9.51056 -2
      vertex -1.04528 9.94522 2.5
      vertex -3.09017 9.51056 2.5
    endloop
  endfacet
  facet normal 0.207911 -0.978148 0
    outer loop
      vertex -1.04528 9.94522 2.5
      vertex -3.09017 9.51056 -2
      vertex -1.04528 9.94522 -2
    endloop
  endfacet
  facet normal -0.994522 0.104529 0
    outer loop
      vertex 9.78148 -2.07912 -2
      vertex 10 0 2.5
      vertex 10 0 -2
    endloop
  endfacet
  facet normal -0.994522 0.104529 0
    outer loop
      vertex 10 0 2.5
      vertex 9.78148 -2.07912 -2
      vertex 9.78148 -2.07912 2.5
    endloop
  endfacet
  facet normal -0.207911 0.978148 0
    outer loop
      vertex 3.09017 -9.51056 -2
      vertex 1.04528 -9.94522 2.5
      vertex 3.09017 -9.51056 2.5
    endloop
  endfacet
  facet normal -0.207911 0.978148 0
    outer loop
      vertex 1.04528 -9.94522 2.5
      vertex 3.09017 -9.51056 -2
      vertex 1.04528 -9.94522 -2
    endloop
  endfacet
  facet normal -0.866026 0.5 0
    outer loop
      vertex 8.09017 -5.87785 -2
      vertex 9.13545 -4.06737 2.5
      vertex 9.13545 -4.06737 -2
    endloop
  endfacet
  facet normal -0.866026 0.5 0
    outer loop
      vertex 9.13545 -4.06737 2.5
      vertex 8.09017 -5.87785 -2
      vertex 8.09017 -5.87785 2.5
    endloop
  endfacet
  facet normal 0.866026 0.5 0
    outer loop
      vertex -8.09017 -5.87785 2.5
      vertex -9.13545 -4.06737 -2
      vertex -9.13545 -4.06737 2.5
    endloop
  endfacet
  facet normal 0.866026 0.5 0
    outer loop
      vertex -9.13545 -4.06737 -2
      vertex -8.09017 -5.87785 2.5
      vertex -8.09017 -5.87785 -2
    endloop
  endfacet
  facet normal -0.587785 0.809017 0
    outer loop
      vertex 6.69131 -7.43145 -2
      vertex 5 -8.66025 2.5
      vertex 6.69131 -7.43145 2.5
    endloop
  endfacet
  facet normal -0.587785 0.809017 0
    outer loop
      vertex 5 -8.66025 2.5
      vertex 6.69131 -7.43145 -2
      vertex 5 -8.66025 -2
    endloop
  endfacet
  facet normal -0.406737 0.913545 0
    outer loop
      vertex 5 -8.66025 -2
      vertex 3.09017 -9.51056 2.5
      vertex 5 -8.66025 2.5
    endloop
  endfacet
  facet normal -0.406737 0.913545 0
    outer loop
      vertex 3.09017 -9.51056 2.5
      vertex 5 -8.66025 -2
      vertex 3.09017 -9.51056 -2
    endloop
  endfacet
  facet normal -0.951057 0.309017 0
    outer loop
      vertex 9.13545 -4.06737 -2
      vertex 9.78148 -2.07912 2.5
      vertex 9.78148 -2.07912 -2
    endloop
  endfacet
  facet normal -0.951057 0.309017 0
    outer loop
      vertex 9.78148 -2.07912 2.5
      vertex 9.13545 -4.06737 -2
      vertex 9.13545 -4.06737 2.5
    endloop
  endfacet
  facet normal 0.743145 0.669131 0
    outer loop
      vertex -6.69131 -7.43145 2.5
      vertex -8.09017 -5.87785 -2
      vertex -8.09017 -5.87785 2.5
    endloop
  endfacet
  facet normal 0.743145 0.669131 0
    outer loop
      vertex -8.09017 -5.87785 -2
      vertex -6.69131 -7.43145 2.5
      vertex -6.69131 -7.43145 -2
    endloop
  endfacet
  facet normal 0.951057 0.309017 0
    outer loop
      vertex -9.13545 -4.06737 2.5
      vertex -9.78148 -2.07912 -2
      vertex -9.78148 -2.07912 2.5
    endloop
  endfacet
  facet normal 0.951057 0.309017 0
    outer loop
      vertex -9.78148 -2.07912 -2
      vertex -9.13545 -4.06737 2.5
      vertex -9.13545 -4.06737 -2
    endloop
  endfacet
  facet normal 0.994522 0.104529 0
    outer loop
      vertex -9.78148 -2.07912 2.5
      vertex -10 0 -2
      vertex -10 0 2.5
    endloop
  endfacet
  facet normal 0.994522 0.104529 0
    outer loop
      vertex -10 0 -2
      vertex -9.78148 -2.07912 2.5
      vertex -9.78148 -2.07912 -2
    endloop
  endfacet
  facet normal -0.743145 0.669131 0
    outer loop
      vertex 6.69131 -7.43145 -2
      vertex 8.09017 -5.87785 2.5
      vertex 8.09017 -5.87785 -2
    endloop
  endfacet
  facet normal -0.743145 0.669131 0
    outer loop
      vertex 8.09017 -5.87785 2.5
      vertex 6.69131 -7.43145 -2
      vertex 6.69131 -7.43145 2.5
    endloop
  endfacet
  facet normal 0.406737 0.913545 -0
    outer loop
      vertex -3.09017 -9.51056 -2
      vertex -5 -8.66025 2.5
      vertex -3.09017 -9.51056 2.5
    endloop
  endfacet
  facet normal 0.406737 0.913545 0
    outer loop
      vertex -5 -8.66025 2.5
      vertex -3.09017 -9.51056 -2
      vertex -5 -8.66025 -2
    endloop
  endfacet
  facet normal 0.587785 0.809017 -0
    outer loop
      vertex -5 -8.66025 -2
      vertex -6.69131 -7.43145 2.5
      vertex -5 -8.66025 2.5
    endloop
  endfacet
  facet normal 0.587785 0.809017 0
    outer loop
      vertex -6.69131 -7.43145 2.5
      vertex -5 -8.66025 -2
      vertex -6.69131 -7.43145 -2
    endloop
  endfacet
  facet normal 0.207911 0.978148 -0
    outer loop
      vertex -1.04528 -9.94522 -2
      vertex -3.09017 -9.51056 2.5
      vertex -1.04528 -9.94522 2.5
    endloop
  endfacet
  facet normal 0.207911 0.978148 0
    outer loop
      vertex -3.09017 -9.51056 2.5
      vertex -1.04528 -9.94522 -2
      vertex -3.09017 -9.51056 -2
    endloop
  endfacet
  facet normal 0.994522 0.104529 0
    outer loop
      vertex 20 0 -2
      vertex 19.563 4.15823 -3
      vertex 19.563 4.15823 -2
    endloop
  endfacet
  facet normal 0.994522 0.104529 0
    outer loop
      vertex 19.563 4.15823 -3
      vertex 20 0 -2
      vertex 20 0 -3
    endloop
  endfacet
  facet normal -0.994522 0.104529 0
    outer loop
      vertex -20 0 -3
      vertex -19.563 4.15823 -2
      vertex -19.563 4.15823 -3
    endloop
  endfacet
  facet normal -0.994522 0.104529 0
    outer loop
      vertex -19.563 4.15823 -2
      vertex -20 0 -3
      vertex -20 0 -2
    endloop
  endfacet
  facet normal 0 1 -0
    outer loop
      vertex 2.09057 19.8904 -3
      vertex -2.09057 19.8904 -2
      vertex 2.09057 19.8904 -2
    endloop
  endfacet
  facet normal 0 1 0
    outer loop
      vertex -2.09057 19.8904 -2
      vertex 2.09057 19.8904 -3
      vertex -2.09057 19.8904 -3
    endloop
  endfacet
  facet normal 0 -1 0
    outer loop
      vertex -2.09057 -19.8904 -3
      vertex 2.09057 -19.8904 -2
      vertex -2.09057 -19.8904 -2
    endloop
  endfacet
  facet normal 0 -1 -0
    outer loop
      vertex 2.09057 -19.8904 -2
      vertex -2.09057 -19.8904 -3
      vertex 2.09057 -19.8904 -3
    endloop
  endfacet
  facet normal 0.587785 0.809017 -0
    outer loop
      vertex 13.3826 14.8629 -3
      vertex 10 17.3205 -2
      vertex 13.3826 14.8629 -2
    endloop
  endfacet
  facet normal 0.587785 0.809017 0
    outer loop
      vertex 10 17.3205 -2
      vertex 13.3826 14.8629 -3
      vertex 10 17.3205 -3
    endloop
  endfacet
  facet normal 0.406737 0.913545 -0
    outer loop
      vertex 10 17.3205 -3
      vertex 6.18034 19.0211 -2
      vertex 10 17.3205 -2
    endloop
  endfacet
  facet normal 0.406737 0.913545 0
    outer loop
      vertex 6.18034 19.0211 -2
      vertex 10 17.3205 -3
      vertex 6.18034 19.0211 -3
    endloop
  endfacet
  facet normal -0.743145 0.669131 0
    outer loop
      vertex -16.1803 11.7557 -3
      vertex -13.3826 14.8629 -2
      vertex -13.3826 14.8629 -3
    endloop
  endfacet
  facet normal -0.743145 0.669131 0
    outer loop
      vertex -13.3826 14.8629 -2
      vertex -16.1803 11.7557 -3
      vertex -16.1803 11.7557 -2
    endloop
  endfacet
  facet normal -0.866026 0.5 0
    outer loop
      vertex -18.2709 8.13473 -3
      vertex -16.1803 11.7557 -2
      vertex -16.1803 11.7557 -3
    endloop
  endfacet
  facet normal -0.866026 0.5 0
    outer loop
      vertex -16.1803 11.7557 -2
      vertex -18.2709 8.13473 -3
      vertex -18.2709 8.13473 -2
    endloop
  endfacet
  facet normal -0.406737 0.913545 0
    outer loop
      vertex -6.18034 19.0211 -3
      vertex -10 17.3205 -2
      vertex -6.18034 19.0211 -2
    endloop
  endfacet
  facet normal -0.406737 0.913545 0
    outer loop
      vertex -10 17.3205 -2
      vertex -6.18034 19.0211 -3
      vertex -10 17.3205 -3
    endloop
  endfacet
  facet normal 0.866026 0.5 0
    outer loop
      vertex 18.2709 8.13473 -2
      vertex 16.1803 11.7557 -3
      vertex 16.1803 11.7557 -2
    endloop
  endfacet
  facet normal 0.866026 0.5 0
    outer loop
      vertex 16.1803 11.7557 -3
      vertex 18.2709 8.13473 -2
      vertex 18.2709 8.13473 -3
    endloop
  endfacet
  facet normal 0.951057 0.309017 0
    outer loop
      vertex 19.563 4.15823 -2
      vertex 18.2709 8.13473 -3
      vertex 18.2709 8.13473 -2
    endloop
  endfacet
  facet normal 0.951057 0.309017 0
    outer loop
      vertex 18.2709 8.13473 -3
      vertex 19.563 4.15823 -2
      vertex 19.563 4.15823 -3
    endloop
  endfacet
  facet normal 0.743145 0.669131 0
    outer loop
      vertex 16.1803 11.7557 -2
      vertex 13.3826 14.8629 -3
      vertex 13.3826 14.8629 -2
    endloop
  endfacet
  facet normal 0.743145 0.669131 0
    outer loop
      vertex 13.3826 14.8629 -3
      vertex 16.1803 11.7557 -2
      vertex 16.1803 11.7557 -3
    endloop
  endfacet
  facet normal 0.207912 0.978148 -0
    outer loop
      vertex 6.18034 19.0211 -3
      vertex 2.09057 19.8904 -2
      vertex 6.18034 19.0211 -2
    endloop
  endfacet
  facet normal 0.207912 0.978148 0
    outer loop
      vertex 2.09057 19.8904 -2
      vertex 6.18034 19.0211 -3
      vertex 2.09057 19.8904 -3
    endloop
  endfacet
  facet normal -0.951057 0.309017 0
    outer loop
      vertex -19.563 4.15823 -3
      vertex -18.2709 8.13473 -2
      vertex -18.2709 8.13473 -3
    endloop
  endfacet
  facet normal -0.951057 0.309017 0
    outer loop
      vertex -18.2709 8.13473 -2
      vertex -19.563 4.15823 -3
      vertex -19.563 4.15823 -2
    endloop
  endfacet
  facet normal 0 0 1
    outer loop
      vertex 11 0 -2
      vertex 20 0 -2
      vertex 19.563 4.15823 -2
    endloop
  endfacet
  facet normal 0 0 1
    outer loop
      vertex 10.7596 2.28703 -2
      vertex 19.563 4.15823 -2
      vertex 18.2709 8.13473 -2
    endloop
  endfacet
  facet normal 0 0 1
    outer loop
      vertex 20 0 -2
      vertex 11 0 -2
      vertex 19.563 -4.15823 -2
    endloop
  endfacet
  facet normal 0 0 1
    outer loop
      vertex 10.049 4.4741 -2
      vertex 18.2709 8.13473 -2
      vertex 16.1803 11.7557 -2
    endloop
  endfacet
  facet normal -0 0 1
    outer loop
      vertex 10.7596 -2.28703 -2
      vertex 19.563 -4.15823 -2
      vertex 11 0 -2
    endloop
  endfacet
  facet normal 0 0 1
    outer loop
      vertex 8.89919 6.46564 -2
      vertex 16.1803 11.7557 -2
      vertex 13.3826 14.8629 -2
    endloop
  endfacet
  facet normal 0 0 1
    outer loop
      vertex 19.563 -4.15823 -2
      vertex 10.7596 -2.28703 -2
      vertex 18.2709 -8.13473 -2
    endloop
  endfacet
  facet normal -0 0 1
    outer loop
      vertex 10.049 -4.4741 -2
      vertex 18.2709 -8.13473 -2
      vertex 10.7596 -2.28703 -2
    endloop
  endfacet
  facet normal 0 0 1
    outer loop
      vertex 19.563 4.15823 -2
      vertex 10.7596 2.28703 -2
      vertex 11 0 -2
    endloop
  endfacet
  facet normal 0 0 1
    outer loop
      vertex 18.2709 8.13473 -2
      vertex 10.049 4.4741 -2
      vertex 10.7596 2.28703 -2
    endloop
  endfacet
  facet normal 0 0 1
    outer loop
      vertex 7.36044 8.17459 -2
      vertex 13.3826 14.8629 -2
      vertex 10 17.3205 -2
    endloop
  endfacet
  facet normal 0 0 1
    outer loop
      vertex 16.1803 11.7557 -2
      vertex 8.89919 6.46564 -2
      vertex 10.049 4.4741 -2
    endloop
  endfacet
  facet normal 0 0 1
    outer loop
      vertex 13.3826 14.8629 -2
      vertex 7.36044 8.17459 -2
      vertex 8.89919 6.46564 -2
    endloop
  endfacet
  facet normal 0 0 1
    outer loop
      vertex 5.5 9.52628 -2
      vertex 10 17.3205 -2
      vertex 6.18034 19.0211 -2
    endloop
  endfacet
  facet normal 0 0 1
    outer loop
      vertex 10 17.3205 -2
      vertex 5.5 9.52628 -2
      vertex 7.36044 8.17459 -2
    endloop
  endfacet
  facet normal 0 0 1
    outer loop
      vertex 6.18034 19.0211 -2
      vertex 3.39919 10.4616 -2
      vertex 5.5 9.52628 -2
    endloop
  endfacet
  facet normal 0 0 1
    outer loop
      vertex 2.09057 19.8904 -2
      vertex 3.39919 10.4616 -2
      vertex 6.18034 19.0211 -2
    endloop
  endfacet
  facet normal 0 0 1
    outer loop
      vertex 2.09057 19.8904 -2
      vertex 1.14981 10.9397 -2
      vertex 3.39919 10.4616 -2
    endloop
  endfacet
  facet normal 0 0 1
    outer loop
      vertex 2.09057 19.8904 -2
      vertex -1.14981 10.9397 -2
      vertex 1.14981 10.9397 -2
    endloop
  endfacet
  facet normal -0 0 1
    outer loop
      vertex -2.09057 19.8904 -2
      vertex -1.14981 10.9397 -2
      vertex 2.09057 19.8904 -2
    endloop
  endfacet
  facet normal 0 0 1
    outer loop
      vertex -2.09057 19.8904 -2
      vertex -3.39919 10.4616 -2
      vertex -1.14981 10.9397 -2
    endloop
  endfacet
  facet normal -0 0 1
    outer loop
      vertex -6.18034 19.0211 -2
      vertex -3.39919 10.4616 -2
      vertex -2.09057 19.8904 -2
    endloop
  endfacet
  facet normal 0 0 1
    outer loop
      vertex -3.39919 10.4616 -2
      vertex -6.18034 19.0211 -2
      vertex -5.5 9.52628 -2
    endloop
  endfacet
  facet normal -0 0 1
    outer loop
      vertex -10 17.3205 -2
      vertex -5.5 9.52628 -2
      vertex -6.18034 19.0211 -2
    endloop
  endfacet
  facet normal 0 0 1
    outer loop
      vertex -5.5 9.52628 -2
      vertex -10 17.3205 -2
      vertex -7.36044 8.17459 -2
    endloop
  endfacet
  facet normal -0 0 1
    outer loop
      vertex -13.3826 14.8629 -2
      vertex -7.36044 8.17459 -2
      vertex -10 17.3205 -2
    endloop
  endfacet
  facet normal 0 0 1
    outer loop
      vertex -7.36044 8.17459 -2
      vertex -13.3826 14.8629 -2
      vertex -8.89919 6.46564 -2
    endloop
  endfacet
  facet normal -0 0 1
    outer loop
      vertex -16.1803 11.7557 -2
      vertex -8.89919 6.46564 -2
      vertex -13.3826 14.8629 -2
    endloop
  endfacet
  facet normal 0 0 1
    outer loop
      vertex -8.89919 6.46564 -2
      vertex -16.1803 11.7557 -2
      vertex -10.049 4.4741 -2
    endloop
  endfacet
  facet normal -0 0 1
    outer loop
      vertex -18.2709 8.13473 -2
      vertex -10.049 4.4741 -2
      vertex -16.1803 11.7557 -2
    endloop
  endfacet
  facet normal 0 0 1
    outer loop
      vertex 18.2709 -8.13473 -2
      vertex 10.049 -4.4741 -2
      vertex 16.1803 -11.7557 -2
    endloop
  endfacet
  facet normal -0 0 1
    outer loop
      vertex 8.89919 -6.46564 -2
      vertex 16.1803 -11.7557 -2
      vertex 10.049 -4.4741 -2
    endloop
  endfacet
  facet normal 0 0 1
    outer loop
      vertex 16.1803 -11.7557 -2
      vertex 8.89919 -6.46564 -2
      vertex 13.3826 -14.8629 -2
    endloop
  endfacet
  facet normal -0 0 1
    outer loop
      vertex 7.36044 -8.17459 -2
      vertex 13.3826 -14.8629 -2
      vertex 8.89919 -6.46564 -2
    endloop
  endfacet
  facet normal 0 0 1
    outer loop
      vertex 13.3826 -14.8629 -2
      vertex 7.36044 -8.17459 -2
      vertex 10 -17.3205 -2
    endloop
  endfacet
  facet normal -0 0 1
    outer loop
      vertex 5.5 -9.52628 -2
      vertex 10 -17.3205 -2
      vertex 7.36044 -8.17459 -2
    endloop
  endfacet
  facet normal 0 0 1
    outer loop
      vertex 10 -17.3205 -2
      vertex 5.5 -9.52628 -2
      vertex 6.18034 -19.0211 -2
    endloop
  endfacet
  facet normal -0 0 1
    outer loop
      vertex 3.39919 -10.4616 -2
      vertex 6.18034 -19.0211 -2
      vertex 5.5 -9.52628 -2
    endloop
  endfacet
  facet normal 0 0 1
    outer loop
      vertex 3.39919 -10.4616 -2
      vertex 2.09057 -19.8904 -2
      vertex 6.18034 -19.0211 -2
    endloop
  endfacet
  facet normal -0 0 1
    outer loop
      vertex 1.14981 -10.9397 -2
      vertex 2.09057 -19.8904 -2
      vertex 3.39919 -10.4616 -2
    endloop
  endfacet
  facet normal -0 0 1
    outer loop
      vertex -1.14981 -10.9397 -2
      vertex 2.09057 -19.8904 -2
      vertex 1.14981 -10.9397 -2
    endloop
  endfacet
  facet normal 0 0 1
    outer loop
      vertex -1.14981 -10.9397 -2
      vertex -2.09057 -19.8904 -2
      vertex 2.09057 -19.8904 -2
    endloop
  endfacet
  facet normal 0 0 1
    outer loop
      vertex -3.39919 -10.4616 -2
      vertex -2.09057 -19.8904 -2
      vertex -1.14981 -10.9397 -2
    endloop
  endfacet
  facet normal 0 0 1
    outer loop
      vertex -6.18034 -19.0211 -2
      vertex -3.39919 -10.4616 -2
      vertex -5.5 -9.52628 -2
    endloop
  endfacet
  facet normal 0 0 1
    outer loop
      vertex -3.39919 -10.4616 -2
      vertex -6.18034 -19.0211 -2
      vertex -2.09057 -19.8904 -2
    endloop
  endfacet
  facet normal 0 0 1
    outer loop
      vertex -10 -17.3205 -2
      vertex -5.5 -9.52628 -2
      vertex -7.36044 -8.17459 -2
    endloop
  endfacet
  facet normal 0 0 1
    outer loop
      vertex -13.3826 -14.8629 -2
      vertex -7.36044 -8.17459 -2
      vertex -8.89919 -6.46564 -2
    endloop
  endfacet
  facet normal 0 0 1
    outer loop
      vertex -5.5 -9.52628 -2
      vertex -10 -17.3205 -2
      vertex -6.18034 -19.0211 -2
    endloop
  endfacet
  facet normal 0 0 1
    outer loop
      vertex -16.1803 -11.7557 -2
      vertex -8.89919 -6.46564 -2
      vertex -10.049 -4.4741 -2
    endloop
  endfacet
  facet normal 0 0 1
    outer loop
      vertex -18.2709 -8.13473 -2
      vertex -10.049 -4.4741 -2
      vertex -10.7596 -2.28703 -2
    endloop
  endfacet
  facet normal 0 0 1
    outer loop
      vertex -19.563 -4.15823 -2
      vertex -10.7596 -2.28703 -2
      vertex -11 0 -2
    endloop
  endfacet
  facet normal 0 0 1
    outer loop
      vertex -10.049 4.4741 -2
      vertex -18.2709 8.13473 -2
      vertex -10.7596 2.28703 -2
    endloop
  endfacet
  facet normal 0 0 1
    outer loop
      vertex -7.36044 -8.17459 -2
      vertex -13.3826 -14.8629 -2
      vertex -10 -17.3205 -2
    endloop
  endfacet
  facet normal -0 0 1
    outer loop
      vertex -19.563 4.15823 -2
      vertex -10.7596 2.28703 -2
      vertex -18.2709 8.13473 -2
    endloop
  endfacet
  facet normal 0 0 1
    outer loop
      vertex -8.89919 -6.46564 -2
      vertex -16.1803 -11.7557 -2
      vertex -13.3826 -14.8629 -2
    endloop
  endfacet
  facet normal 0 0 1
    outer loop
      vertex -10.7596 2.28703 -2
      vertex -19.563 4.15823 -2
      vertex -11 0 -2
    endloop
  endfacet
  facet normal 0 0 1
    outer loop
      vertex -10.049 -4.4741 -2
      vertex -18.2709 -8.13473 -2
      vertex -16.1803 -11.7557 -2
    endloop
  endfacet
  facet normal 0 0 1
    outer loop
      vertex -20 0 -2
      vertex -11 0 -2
      vertex -19.563 4.15823 -2
    endloop
  endfacet
  facet normal 0 0 1
    outer loop
      vertex -10.7596 -2.28703 -2
      vertex -19.563 -4.15823 -2
      vertex -18.2709 -8.13473 -2
    endloop
  endfacet
  facet normal 0 0 1
    outer loop
      vertex -11 0 -2
      vertex -20 0 -2
      vertex -19.563 -4.15823 -2
    endloop
  endfacet
  facet normal 0 0 1
    outer loop
      vertex 9.78148 2.07912 -2
      vertex 9.78148 -2.07912 -2
      vertex 10 0 -2
    endloop
  endfacet
  facet normal 0 0 1
    outer loop
      vertex 9.13545 4.06737 -2
      vertex 9.78148 -2.07912 -2
      vertex 9.78148 2.07912 -2
    endloop
  endfacet
  facet normal 0 0 1
    outer loop
      vertex 9.13545 4.06737 -2
      vertex 9.13545 -4.06737 -2
      vertex 9.78148 -2.07912 -2
    endloop
  endfacet
  facet normal 0 0 1
    outer loop
      vertex 8.09017 5.87785 -2
      vertex 9.13545 -4.06737 -2
      vertex 9.13545 4.06737 -2
    endloop
  endfacet
  facet normal 0 0 1
    outer loop
      vertex 8.09017 5.87785 -2
      vertex 8.09017 -5.87785 -2
      vertex 9.13545 -4.06737 -2
    endloop
  endfacet
  facet normal 0 0 1
    outer loop
      vertex 6.69131 7.43145 -2
      vertex 8.09017 -5.87785 -2
      vertex 8.09017 5.87785 -2
    endloop
  endfacet
  facet normal 0 0 1
    outer loop
      vertex 6.69131 7.43145 -2
      vertex 6.69131 -7.43145 -2
      vertex 8.09017 -5.87785 -2
    endloop
  endfacet
  facet normal 0 0 1
    outer loop
      vertex 5 8.66025 -2
      vertex 6.69131 -7.43145 -2
      vertex 6.69131 7.43145 -2
    endloop
  endfacet
  facet normal 0 0 1
    outer loop
      vertex 5 8.66025 -2
      vertex 5 -8.66025 -2
      vertex 6.69131 -7.43145 -2
    endloop
  endfacet
  facet normal 0 0 1
    outer loop
      vertex 3.09017 9.51056 -2
      vertex 5 -8.66025 -2
      vertex 5 8.66025 -2
    endloop
  endfacet
  facet normal 0 0 1
    outer loop
      vertex 3.09017 9.51056 -2
      vertex 3.09017 -9.51056 -2
      vertex 5 -8.66025 -2
    endloop
  endfacet
  facet normal 0 0 1
    outer loop
      vertex 1.04528 9.94522 -2
      vertex 3.09017 -9.51056 -2
      vertex 3.09017 9.51056 -2
    endloop
  endfacet
  facet normal 0 0 1
    outer loop
      vertex 1.04528 9.94522 -2
      vertex 1.04528 -9.94522 -2
      vertex 3.09017 -9.51056 -2
    endloop
  endfacet
  facet normal -0 0 1
    outer loop
      vertex -1.04528 9.94522 -2
      vertex 1.04528 -9.94522 -2
      vertex 1.04528 9.94522 -2
    endloop
  endfacet
  facet normal 0 0 1
    outer loop
      vertex -1.04528 9.94522 -2
      vertex -1.04528 -9.94522 -2
      vertex 1.04528 -9.94522 -2
    endloop
  endfacet
  facet normal -0 0 1
    outer loop
      vertex -3.09017 9.51056 -2
      vertex -1.04528 -9.94522 -2
      vertex -1.04528 9.94522 -2
    endloop
  endfacet
  facet normal 0 0 1
    outer loop
      vertex -3.09017 9.51056 -2
      vertex -3.09017 -9.51056 -2
      vertex -1.04528 -9.94522 -2
    endloop
  endfacet
  facet normal -0 0 1
    outer loop
      vertex -5 8.66025 -2
      vertex -3.09017 -9.51056 -2
      vertex -3.09017 9.51056 -2
    endloop
  endfacet
  facet normal 0 0 1
    outer loop
      vertex -5 8.66025 -2
      vertex -5 -8.66025 -2
      vertex -3.09017 -9.51056 -2
    endloop
  endfacet
  facet normal -0 0 1
    outer loop
      vertex -6.69131 7.43145 -2
      vertex -5 -8.66025 -2
      vertex -5 8.66025 -2
    endloop
  endfacet
  facet normal 0 0 1
    outer loop
      vertex -6.69131 7.43145 -2
      vertex -6.69131 -7.43145 -2
      vertex -5 -8.66025 -2
    endloop
  endfacet
  facet normal -0 0 1
    outer loop
      vertex -8.09017 5.87785 -2
      vertex -6.69131 -7.43145 -2
      vertex -6.69131 7.43145 -2
    endloop
  endfacet
  facet normal 0 0 1
    outer loop
      vertex -8.09017 5.87785 -2
      vertex -8.09017 -5.87785 -2
      vertex -6.69131 -7.43145 -2
    endloop
  endfacet
  facet normal -0 0 1
    outer loop
      vertex -9.13545 4.06737 -2
      vertex -8.09017 -5.87785 -2
      vertex -8.09017 5.87785 -2
    endloop
  endfacet
  facet normal 0 0 1
    outer loop
      vertex -9.13545 4.06737 -2
      vertex -9.13545 -4.06737 -2
      vertex -8.09017 -5.87785 -2
    endloop
  endfacet
  facet normal -0 0 1
    outer loop
      vertex -9.78148 2.07912 -2
      vertex -9.13545 -4.06737 -2
      vertex -9.13545 4.06737 -2
    endloop
  endfacet
  facet normal 0 0 1
    outer loop
      vertex -9.78148 2.07912 -2
      vertex -9.78148 -2.07912 -2
      vertex -9.13545 -4.06737 -2
    endloop
  endfacet
  facet normal 0 -0 1
    outer loop
      vertex -9.78148 -2.07912 -2
      vertex -9.78148 2.07912 -2
      vertex -10 0 -2
    endloop
  endfacet
  facet normal -0.587785 0.809017 0
    outer loop
      vertex -10 17.3205 -3
      vertex -13.3826 14.8629 -2
      vertex -10 17.3205 -2
    endloop
  endfacet
  facet normal -0.587785 0.809017 0
    outer loop
      vertex -13.3826 14.8629 -2
      vertex -10 17.3205 -3
      vertex -13.3826 14.8629 -3
    endloop
  endfacet
  facet normal -0.207912 0.978148 0
    outer loop
      vertex -2.09057 19.8904 -3
      vertex -6.18034 19.0211 -2
      vertex -2.09057 19.8904 -2
    endloop
  endfacet
  facet normal -0.207912 0.978148 0
    outer loop
      vertex -6.18034 19.0211 -2
      vertex -2.09057 19.8904 -3
      vertex -6.18034 19.0211 -3
    endloop
  endfacet
  facet normal 0.994522 -0.104529 0
    outer loop
      vertex 19.563 -4.15823 -2
      vertex 20 0 -3
      vertex 20 0 -2
    endloop
  endfacet
  facet normal 0.994522 -0.104529 0
    outer loop
      vertex 20 0 -3
      vertex 19.563 -4.15823 -2
      vertex 19.563 -4.15823 -3
    endloop
  endfacet
  facet normal 0 0 -1
    outer loop
      vertex 19.563 -4.15823 -3
      vertex 19.563 4.15823 -3
      vertex 20 0 -3
    endloop
  endfacet
  facet normal 0 0 -1
    outer loop
      vertex 18.2709 -8.13473 -3
      vertex 19.563 4.15823 -3
      vertex 19.563 -4.15823 -3
    endloop
  endfacet
  facet normal 0 0 -1
    outer loop
      vertex 18.2709 -8.13473 -3
      vertex 18.2709 8.13473 -3
      vertex 19.563 4.15823 -3
    endloop
  endfacet
  facet normal 0 0 -1
    outer loop
      vertex 16.1803 -11.7557 -3
      vertex 18.2709 8.13473 -3
      vertex 18.2709 -8.13473 -3
    endloop
  endfacet
  facet normal 0 0 -1
    outer loop
      vertex 16.1803 -11.7557 -3
      vertex 16.1803 11.7557 -3
      vertex 18.2709 8.13473 -3
    endloop
  endfacet
  facet normal 0 0 -1
    outer loop
      vertex 13.3826 -14.8629 -3
      vertex 16.1803 11.7557 -3
      vertex 16.1803 -11.7557 -3
    endloop
  endfacet
  facet normal 0 0 -1
    outer loop
      vertex 13.3826 -14.8629 -3
      vertex 13.3826 14.8629 -3
      vertex 16.1803 11.7557 -3
    endloop
  endfacet
  facet normal 0 0 -1
    outer loop
      vertex 10 -17.3205 -3
      vertex 13.3826 14.8629 -3
      vertex 13.3826 -14.8629 -3
    endloop
  endfacet
  facet normal 0 0 -1
    outer loop
      vertex 10 -17.3205 -3
      vertex 10 17.3205 -3
      vertex 13.3826 14.8629 -3
    endloop
  endfacet
  facet normal 0 0 -1
    outer loop
      vertex 6.18034 -19.0211 -3
      vertex 10 17.3205 -3
      vertex 10 -17.3205 -3
    endloop
  endfacet
  facet normal 0 0 -1
    outer loop
      vertex 6.18034 -19.0211 -3
      vertex 6.18034 19.0211 -3
      vertex 10 17.3205 -3
    endloop
  endfacet
  facet normal 0 0 -1
    outer loop
      vertex 2.09057 -19.8904 -3
      vertex 6.18034 19.0211 -3
      vertex 6.18034 -19.0211 -3
    endloop
  endfacet
  facet normal 0 0 -1
    outer loop
      vertex 2.09057 -19.8904 -3
      vertex 2.09057 19.8904 -3
      vertex 6.18034 19.0211 -3
    endloop
  endfacet
  facet normal 0 0 -1
    outer loop
      vertex -2.09057 -19.8904 -3
      vertex 2.09057 19.8904 -3
      vertex 2.09057 -19.8904 -3
    endloop
  endfacet
  facet normal 0 0 -1
    outer loop
      vertex -2.09057 -19.8904 -3
      vertex -2.09057 19.8904 -3
      vertex 2.09057 19.8904 -3
    endloop
  endfacet
  facet normal 0 0 -1
    outer loop
      vertex -6.18034 -19.0211 -3
      vertex -2.09057 19.8904 -3
      vertex -2.09057 -19.8904 -3
    endloop
  endfacet
  facet normal 0 0 -1
    outer loop
      vertex -6.18034 -19.0211 -3
      vertex -6.18034 19.0211 -3
      vertex -2.09057 19.8904 -3
    endloop
  endfacet
  facet normal 0 0 -1
    outer loop
      vertex -6.18034 -19.0211 -3
      vertex -10 17.3205 -3
      vertex -6.18034 19.0211 -3
    endloop
  endfacet
  facet normal 0 0 -1
    outer loop
      vertex -10 -17.3205 -3
      vertex -10 17.3205 -3
      vertex -6.18034 -19.0211 -3
    endloop
  endfacet
  facet normal 0 0 -1
    outer loop
      vertex -13.3826 -14.8629 -3
      vertex -10 17.3205 -3
      vertex -10 -17.3205 -3
    endloop
  endfacet
  facet normal 0 0 -1
    outer loop
      vertex -13.3826 -14.8629 -3
      vertex -13.3826 14.8629 -3
      vertex -10 17.3205 -3
    endloop
  endfacet
  facet normal 0 0 -1
    outer loop
      vertex -16.1803 -11.7557 -3
      vertex -13.3826 14.8629 -3
      vertex -13.3826 -14.8629 -3
    endloop
  endfacet
  facet normal 0 0 -1
    outer loop
      vertex -16.1803 -11.7557 -3
      vertex -16.1803 11.7557 -3
      vertex -13.3826 14.8629 -3
    endloop
  endfacet
  facet normal 0 0 -1
    outer loop
      vertex -18.2709 -8.13473 -3
      vertex -16.1803 11.7557 -3
      vertex -16.1803 -11.7557 -3
    endloop
  endfacet
  facet normal 0 0 -1
    outer loop
      vertex -18.2709 -8.13473 -3
      vertex -18.2709 8.13473 -3
      vertex -16.1803 11.7557 -3
    endloop
  endfacet
  facet normal 0 0 -1
    outer loop
      vertex -19.563 -4.15823 -3
      vertex -18.2709 8.13473 -3
      vertex -18.2709 -8.13473 -3
    endloop
  endfacet
  facet normal 0 0 -1
    outer loop
      vertex -19.563 -4.15823 -3
      vertex -19.563 4.15823 -3
      vertex -18.2709 8.13473 -3
    endloop
  endfacet
  facet normal 0 -0 -1
    outer loop
      vertex -19.563 4.15823 -3
      vertex -19.563 -4.15823 -3
      vertex -20 0 -3
    endloop
  endfacet
  facet normal 0.207912 -0.978148 0
    outer loop
      vertex 2.09057 -19.8904 -3
      vertex 6.18034 -19.0211 -2
      vertex 2.09057 -19.8904 -2
    endloop
  endfacet
  facet normal 0.207912 -0.978148 0
    outer loop
      vertex 6.18034 -19.0211 -2
      vertex 2.09057 -19.8904 -3
      vertex 6.18034 -19.0211 -3
    endloop
  endfacet
  facet normal 0.743145 -0.669131 0
    outer loop
      vertex 13.3826 -14.8629 -2
      vertex 16.1803 -11.7557 -3
      vertex 16.1803 -11.7557 -2
    endloop
  endfacet
  facet normal 0.743145 -0.669131 0
    outer loop
      vertex 16.1803 -11.7557 -3
      vertex 13.3826 -14.8629 -2
      vertex 13.3826 -14.8629 -3
    endloop
  endfacet
  facet normal 0.951057 -0.309017 0
    outer loop
      vertex 18.2709 -8.13473 -2
      vertex 19.563 -4.15823 -3
      vertex 19.563 -4.15823 -2
    endloop
  endfacet
  facet normal 0.951057 -0.309017 0
    outer loop
      vertex 19.563 -4.15823 -3
      vertex 18.2709 -8.13473 -2
      vertex 18.2709 -8.13473 -3
    endloop
  endfacet
  facet normal 0.866026 -0.5 0
    outer loop
      vertex 16.1803 -11.7557 -2
      vertex 18.2709 -8.13473 -3
      vertex 18.2709 -8.13473 -2
    endloop
  endfacet
  facet normal 0.866026 -0.5 0
    outer loop
      vertex 18.2709 -8.13473 -3
      vertex 16.1803 -11.7557 -2
      vertex 16.1803 -11.7557 -3
    endloop
  endfacet
  facet normal -0.866026 -0.5 0
    outer loop
      vertex -16.1803 -11.7557 -3
      vertex -18.2709 -8.13473 -2
      vertex -18.2709 -8.13473 -3
    endloop
  endfacet
  facet normal -0.866026 -0.5 0
    outer loop
      vertex -18.2709 -8.13473 -2
      vertex -16.1803 -11.7557 -3
      vertex -16.1803 -11.7557 -2
    endloop
  endfacet
  facet normal -0.994522 -0.104529 0
    outer loop
      vertex -19.563 -4.15823 -3
      vertex -20 0 -2
      vertex -20 0 -3
    endloop
  endfacet
  facet normal -0.994522 -0.104529 0
    outer loop
      vertex -20 0 -2
      vertex -19.563 -4.15823 -3
      vertex -19.563 -4.15823 -2
    endloop
  endfacet
  facet normal 0.587785 -0.809017 0
    outer loop
      vertex 10 -17.3205 -3
      vertex 13.3826 -14.8629 -2
      vertex 10 -17.3205 -2
    endloop
  endfacet
  facet normal 0.587785 -0.809017 0
    outer loop
      vertex 13.3826 -14.8629 -2
      vertex 10 -17.3205 -3
      vertex 13.3826 -14.8629 -3
    endloop
  endfacet
  facet normal 0.406737 -0.913545 0
    outer loop
      vertex 6.18034 -19.0211 -3
      vertex 10 -17.3205 -2
      vertex 6.18034 -19.0211 -2
    endloop
  endfacet
  facet normal 0.406737 -0.913545 0
    outer loop
      vertex 10 -17.3205 -2
      vertex 6.18034 -19.0211 -3
      vertex 10 -17.3205 -3
    endloop
  endfacet
  facet normal -0.207912 -0.978148 0
    outer loop
      vertex -6.18034 -19.0211 -3
      vertex -2.09057 -19.8904 -2
      vertex -6.18034 -19.0211 -2
    endloop
  endfacet
  facet normal -0.207912 -0.978148 -0
    outer loop
      vertex -2.09057 -19.8904 -2
      vertex -6.18034 -19.0211 -3
      vertex -2.09057 -19.8904 -3
    endloop
  endfacet
  facet normal -0.406737 -0.913545 0
    outer loop
      vertex -10 -17.3205 -3
      vertex -6.18034 -19.0211 -2
      vertex -10 -17.3205 -2
    endloop
  endfacet
  facet normal -0.406737 -0.913545 -0
    outer loop
      vertex -6.18034 -19.0211 -2
      vertex -10 -17.3205 -3
      vertex -6.18034 -19.0211 -3
    endloop
  endfacet
  facet normal -0.743145 -0.669131 0
    outer loop
      vertex -13.3826 -14.8629 -3
      vertex -16.1803 -11.7557 -2
      vertex -16.1803 -11.7557 -3
    endloop
  endfacet
  facet normal -0.743145 -0.669131 0
    outer loop
      vertex -16.1803 -11.7557 -2
      vertex -13.3826 -14.8629 -3
      vertex -13.3826 -14.8629 -2
    endloop
  endfacet
  facet normal -0.951057 -0.309017 0
    outer loop
      vertex -18.2709 -8.13473 -3
      vertex -19.563 -4.15823 -2
      vertex -19.563 -4.15823 -3
    endloop
  endfacet
  facet normal -0.951057 -0.309017 0
    outer loop
      vertex -19.563 -4.15823 -2
      vertex -18.2709 -8.13473 -3
      vertex -18.2709 -8.13473 -2
    endloop
  endfacet
  facet normal -0.587785 -0.809017 0
    outer loop
      vertex -13.3826 -14.8629 -3
      vertex -10 -17.3205 -2
      vertex -13.3826 -14.8629 -2
    endloop
  endfacet
  facet normal -0.587785 -0.809017 -0
    outer loop
      vertex -10 -17.3205 -2
      vertex -13.3826 -14.8629 -3
      vertex -10 -17.3205 -3
    endloop
  endfacet
endsolid OpenSCAD_Model
